<mxfile host="app.diagrams.net" agent="Mozilla/5.0 (Windows NT 10.0; Win64; x64) AppleWebKit/537.36 (KHTML, like Gecko) Chrome/135.0.0.0 Safari/537.36" version="26.2.9">
  <diagram name="Page-1" id="DVVIbZQ_G7R7olCExYOW">
    <mxGraphModel dx="3347" dy="1254" grid="1" gridSize="10" guides="1" tooltips="1" connect="1" arrows="1" fold="1" page="1" pageScale="1" pageWidth="850" pageHeight="1100" math="0" shadow="0">
      <root>
        <mxCell id="0" />
        <mxCell id="1" parent="0" />
        <mxCell id="Lo_Y75DreQVUA2kq9Nu9-353" style="edgeStyle=orthogonalEdgeStyle;curved=1;rounded=0;orthogonalLoop=1;jettySize=auto;html=1;exitX=0.602;exitY=1.083;exitDx=0;exitDy=0;exitPerimeter=0;entryX=1;entryY=0.5;entryDx=0;entryDy=0;" edge="1" parent="1" source="Lo_Y75DreQVUA2kq9Nu9-45" target="Lo_Y75DreQVUA2kq9Nu9-178">
          <mxGeometry relative="1" as="geometry">
            <mxPoint x="-480" y="760" as="targetPoint" />
          </mxGeometry>
        </mxCell>
        <mxCell id="Lo_Y75DreQVUA2kq9Nu9-32" value="PublisherÂ " style="shape=table;startSize=30;container=1;collapsible=0;childLayout=tableLayout;" vertex="1" parent="1">
          <mxGeometry x="-540" y="260" width="180" height="180" as="geometry" />
        </mxCell>
        <mxCell id="Lo_Y75DreQVUA2kq9Nu9-33" value="" style="shape=tableRow;horizontal=0;startSize=0;swimlaneHead=0;swimlaneBody=0;strokeColor=inherit;top=0;left=0;bottom=0;right=0;collapsible=0;dropTarget=0;fillColor=none;points=[[0,0.5],[1,0.5]];portConstraint=eastwest;" vertex="1" parent="Lo_Y75DreQVUA2kq9Nu9-32">
          <mxGeometry y="30" width="180" height="39" as="geometry" />
        </mxCell>
        <mxCell id="Lo_Y75DreQVUA2kq9Nu9-34" value="int&amp;nbsp;" style="shape=partialRectangle;html=1;whiteSpace=wrap;connectable=0;strokeColor=inherit;overflow=hidden;fillColor=none;top=0;left=0;bottom=0;right=0;pointerEvents=1;" vertex="1" parent="Lo_Y75DreQVUA2kq9Nu9-33">
          <mxGeometry width="54" height="39" as="geometry">
            <mxRectangle width="54" height="39" as="alternateBounds" />
          </mxGeometry>
        </mxCell>
        <mxCell id="Lo_Y75DreQVUA2kq9Nu9-35" value="Publisher_id" style="shape=partialRectangle;html=1;whiteSpace=wrap;connectable=0;strokeColor=inherit;overflow=hidden;fillColor=none;top=0;left=0;bottom=0;right=0;pointerEvents=1;" vertex="1" parent="Lo_Y75DreQVUA2kq9Nu9-33">
          <mxGeometry x="54" width="82" height="39" as="geometry">
            <mxRectangle width="82" height="39" as="alternateBounds" />
          </mxGeometry>
        </mxCell>
        <mxCell id="Lo_Y75DreQVUA2kq9Nu9-36" value="PK" style="shape=partialRectangle;html=1;whiteSpace=wrap;connectable=0;strokeColor=inherit;overflow=hidden;fillColor=none;top=0;left=0;bottom=0;right=0;pointerEvents=1;" vertex="1" parent="Lo_Y75DreQVUA2kq9Nu9-33">
          <mxGeometry x="136" width="44" height="39" as="geometry">
            <mxRectangle width="44" height="39" as="alternateBounds" />
          </mxGeometry>
        </mxCell>
        <mxCell id="Lo_Y75DreQVUA2kq9Nu9-37" value="" style="shape=tableRow;horizontal=0;startSize=0;swimlaneHead=0;swimlaneBody=0;strokeColor=inherit;top=0;left=0;bottom=0;right=0;collapsible=0;dropTarget=0;fillColor=none;points=[[0,0.5],[1,0.5]];portConstraint=eastwest;" vertex="1" parent="Lo_Y75DreQVUA2kq9Nu9-32">
          <mxGeometry y="69" width="180" height="36" as="geometry" />
        </mxCell>
        <mxCell id="Lo_Y75DreQVUA2kq9Nu9-38" value="string" style="shape=partialRectangle;html=1;whiteSpace=wrap;connectable=0;strokeColor=inherit;overflow=hidden;fillColor=none;top=0;left=0;bottom=0;right=0;pointerEvents=1;" vertex="1" parent="Lo_Y75DreQVUA2kq9Nu9-37">
          <mxGeometry width="54" height="36" as="geometry">
            <mxRectangle width="54" height="36" as="alternateBounds" />
          </mxGeometry>
        </mxCell>
        <mxCell id="Lo_Y75DreQVUA2kq9Nu9-39" value="publisher_name" style="shape=partialRectangle;html=1;whiteSpace=wrap;connectable=0;strokeColor=inherit;overflow=hidden;fillColor=none;top=0;left=0;bottom=0;right=0;pointerEvents=1;" vertex="1" parent="Lo_Y75DreQVUA2kq9Nu9-37">
          <mxGeometry x="54" width="82" height="36" as="geometry">
            <mxRectangle width="82" height="36" as="alternateBounds" />
          </mxGeometry>
        </mxCell>
        <mxCell id="Lo_Y75DreQVUA2kq9Nu9-40" value="" style="shape=partialRectangle;html=1;whiteSpace=wrap;connectable=0;strokeColor=inherit;overflow=hidden;fillColor=none;top=0;left=0;bottom=0;right=0;pointerEvents=1;" vertex="1" parent="Lo_Y75DreQVUA2kq9Nu9-37">
          <mxGeometry x="136" width="44" height="36" as="geometry">
            <mxRectangle width="44" height="36" as="alternateBounds" />
          </mxGeometry>
        </mxCell>
        <mxCell id="Lo_Y75DreQVUA2kq9Nu9-41" value="" style="shape=tableRow;horizontal=0;startSize=0;swimlaneHead=0;swimlaneBody=0;strokeColor=inherit;top=0;left=0;bottom=0;right=0;collapsible=0;dropTarget=0;fillColor=none;points=[[0,0.5],[1,0.5]];portConstraint=eastwest;" vertex="1" parent="Lo_Y75DreQVUA2kq9Nu9-32">
          <mxGeometry y="105" width="180" height="39" as="geometry" />
        </mxCell>
        <mxCell id="Lo_Y75DreQVUA2kq9Nu9-42" value="&#xa;&lt;span style=&quot;color: rgb(0, 0, 0); font-family: Helvetica; font-size: 12px; font-style: normal; font-variant-ligatures: normal; font-variant-caps: normal; font-weight: 400; letter-spacing: normal; orphans: 2; text-align: center; text-indent: 0px; text-transform: none; widows: 2; word-spacing: 0px; -webkit-text-stroke-width: 0px; white-space: normal; background-color: rgb(236, 236, 236); text-decoration-thickness: initial; text-decoration-style: initial; text-decoration-color: initial; display: inline !important; float: none;&quot;&gt;string&lt;/span&gt;&#xa;&#xa;" style="shape=partialRectangle;html=1;whiteSpace=wrap;connectable=0;strokeColor=inherit;overflow=hidden;fillColor=none;top=0;left=0;bottom=0;right=0;pointerEvents=1;" vertex="1" parent="Lo_Y75DreQVUA2kq9Nu9-41">
          <mxGeometry width="54" height="39" as="geometry">
            <mxRectangle width="54" height="39" as="alternateBounds" />
          </mxGeometry>
        </mxCell>
        <mxCell id="Lo_Y75DreQVUA2kq9Nu9-43" value="contact_email" style="shape=partialRectangle;html=1;whiteSpace=wrap;connectable=0;strokeColor=inherit;overflow=hidden;fillColor=none;top=0;left=0;bottom=0;right=0;pointerEvents=1;" vertex="1" parent="Lo_Y75DreQVUA2kq9Nu9-41">
          <mxGeometry x="54" width="82" height="39" as="geometry">
            <mxRectangle width="82" height="39" as="alternateBounds" />
          </mxGeometry>
        </mxCell>
        <mxCell id="Lo_Y75DreQVUA2kq9Nu9-44" value="" style="shape=partialRectangle;html=1;whiteSpace=wrap;connectable=0;strokeColor=inherit;overflow=hidden;fillColor=none;top=0;left=0;bottom=0;right=0;pointerEvents=1;" vertex="1" parent="Lo_Y75DreQVUA2kq9Nu9-41">
          <mxGeometry x="136" width="44" height="39" as="geometry">
            <mxRectangle width="44" height="39" as="alternateBounds" />
          </mxGeometry>
        </mxCell>
        <mxCell id="Lo_Y75DreQVUA2kq9Nu9-45" value="" style="shape=tableRow;horizontal=0;startSize=0;swimlaneHead=0;swimlaneBody=0;strokeColor=inherit;top=0;left=0;bottom=0;right=0;collapsible=0;dropTarget=0;fillColor=none;points=[[0,0.5],[1,0.5]];portConstraint=eastwest;" vertex="1" parent="Lo_Y75DreQVUA2kq9Nu9-32">
          <mxGeometry y="144" width="180" height="36" as="geometry" />
        </mxCell>
        <mxCell id="Lo_Y75DreQVUA2kq9Nu9-46" value="string" style="shape=partialRectangle;html=1;whiteSpace=wrap;connectable=0;strokeColor=inherit;overflow=hidden;fillColor=none;top=0;left=0;bottom=0;right=0;pointerEvents=1;" vertex="1" parent="Lo_Y75DreQVUA2kq9Nu9-45">
          <mxGeometry width="54" height="36" as="geometry">
            <mxRectangle width="54" height="36" as="alternateBounds" />
          </mxGeometry>
        </mxCell>
        <mxCell id="Lo_Y75DreQVUA2kq9Nu9-47" value="website&amp;nbsp;" style="shape=partialRectangle;html=1;whiteSpace=wrap;connectable=0;strokeColor=inherit;overflow=hidden;fillColor=none;top=0;left=0;bottom=0;right=0;pointerEvents=1;" vertex="1" parent="Lo_Y75DreQVUA2kq9Nu9-45">
          <mxGeometry x="54" width="82" height="36" as="geometry">
            <mxRectangle width="82" height="36" as="alternateBounds" />
          </mxGeometry>
        </mxCell>
        <mxCell id="Lo_Y75DreQVUA2kq9Nu9-48" value="" style="shape=partialRectangle;html=1;whiteSpace=wrap;connectable=0;strokeColor=inherit;overflow=hidden;fillColor=none;top=0;left=0;bottom=0;right=0;pointerEvents=1;" vertex="1" parent="Lo_Y75DreQVUA2kq9Nu9-45">
          <mxGeometry x="136" width="44" height="36" as="geometry">
            <mxRectangle width="44" height="36" as="alternateBounds" />
          </mxGeometry>
        </mxCell>
        <mxCell id="Lo_Y75DreQVUA2kq9Nu9-66" value="BOOK_LANGUAGE" style="shape=table;startSize=30;container=1;collapsible=0;childLayout=tableLayout;" vertex="1" parent="1">
          <mxGeometry x="-800" y="230" width="210" height="200" as="geometry" />
        </mxCell>
        <mxCell id="Lo_Y75DreQVUA2kq9Nu9-67" value="" style="shape=tableRow;horizontal=0;startSize=0;swimlaneHead=0;swimlaneBody=0;strokeColor=inherit;top=0;left=0;bottom=0;right=0;collapsible=0;dropTarget=0;fillColor=none;points=[[0,0.5],[1,0.5]];portConstraint=eastwest;" vertex="1" parent="Lo_Y75DreQVUA2kq9Nu9-66">
          <mxGeometry y="30" width="210" height="58" as="geometry" />
        </mxCell>
        <mxCell id="Lo_Y75DreQVUA2kq9Nu9-68" value="int&amp;nbsp;" style="shape=partialRectangle;html=1;whiteSpace=wrap;connectable=0;strokeColor=inherit;overflow=hidden;fillColor=none;top=0;left=0;bottom=0;right=0;pointerEvents=1;" vertex="1" parent="Lo_Y75DreQVUA2kq9Nu9-67">
          <mxGeometry width="63" height="58" as="geometry">
            <mxRectangle width="63" height="58" as="alternateBounds" />
          </mxGeometry>
        </mxCell>
        <mxCell id="Lo_Y75DreQVUA2kq9Nu9-69" value="language_id" style="shape=partialRectangle;html=1;whiteSpace=wrap;connectable=0;strokeColor=inherit;overflow=hidden;fillColor=none;top=0;left=0;bottom=0;right=0;pointerEvents=1;" vertex="1" parent="Lo_Y75DreQVUA2kq9Nu9-67">
          <mxGeometry x="63" width="96" height="58" as="geometry">
            <mxRectangle width="96" height="58" as="alternateBounds" />
          </mxGeometry>
        </mxCell>
        <mxCell id="Lo_Y75DreQVUA2kq9Nu9-70" value="PK" style="shape=partialRectangle;html=1;whiteSpace=wrap;connectable=0;strokeColor=inherit;overflow=hidden;fillColor=none;top=0;left=0;bottom=0;right=0;pointerEvents=1;" vertex="1" parent="Lo_Y75DreQVUA2kq9Nu9-67">
          <mxGeometry x="159" width="51" height="58" as="geometry">
            <mxRectangle width="51" height="58" as="alternateBounds" />
          </mxGeometry>
        </mxCell>
        <mxCell id="Lo_Y75DreQVUA2kq9Nu9-71" value="" style="shape=tableRow;horizontal=0;startSize=0;swimlaneHead=0;swimlaneBody=0;strokeColor=inherit;top=0;left=0;bottom=0;right=0;collapsible=0;dropTarget=0;fillColor=none;points=[[0,0.5],[1,0.5]];portConstraint=eastwest;" vertex="1" parent="Lo_Y75DreQVUA2kq9Nu9-66">
          <mxGeometry y="88" width="210" height="54" as="geometry" />
        </mxCell>
        <mxCell id="Lo_Y75DreQVUA2kq9Nu9-72" value="string" style="shape=partialRectangle;html=1;whiteSpace=wrap;connectable=0;strokeColor=inherit;overflow=hidden;fillColor=none;top=0;left=0;bottom=0;right=0;pointerEvents=1;" vertex="1" parent="Lo_Y75DreQVUA2kq9Nu9-71">
          <mxGeometry width="63" height="54" as="geometry">
            <mxRectangle width="63" height="54" as="alternateBounds" />
          </mxGeometry>
        </mxCell>
        <mxCell id="Lo_Y75DreQVUA2kq9Nu9-73" value="language_name" style="shape=partialRectangle;html=1;whiteSpace=wrap;connectable=0;strokeColor=inherit;overflow=hidden;fillColor=none;top=0;left=0;bottom=0;right=0;pointerEvents=1;" vertex="1" parent="Lo_Y75DreQVUA2kq9Nu9-71">
          <mxGeometry x="63" width="96" height="54" as="geometry">
            <mxRectangle width="96" height="54" as="alternateBounds" />
          </mxGeometry>
        </mxCell>
        <mxCell id="Lo_Y75DreQVUA2kq9Nu9-74" value="" style="shape=partialRectangle;html=1;whiteSpace=wrap;connectable=0;strokeColor=inherit;overflow=hidden;fillColor=none;top=0;left=0;bottom=0;right=0;pointerEvents=1;" vertex="1" parent="Lo_Y75DreQVUA2kq9Nu9-71">
          <mxGeometry x="159" width="51" height="54" as="geometry">
            <mxRectangle width="51" height="54" as="alternateBounds" />
          </mxGeometry>
        </mxCell>
        <mxCell id="Lo_Y75DreQVUA2kq9Nu9-75" value="" style="shape=tableRow;horizontal=0;startSize=0;swimlaneHead=0;swimlaneBody=0;strokeColor=inherit;top=0;left=0;bottom=0;right=0;collapsible=0;dropTarget=0;fillColor=none;points=[[0,0.5],[1,0.5]];portConstraint=eastwest;" vertex="1" parent="Lo_Y75DreQVUA2kq9Nu9-66">
          <mxGeometry y="142" width="210" height="58" as="geometry" />
        </mxCell>
        <mxCell id="Lo_Y75DreQVUA2kq9Nu9-76" value="&#xa;&lt;span style=&quot;color: rgb(0, 0, 0); font-family: Helvetica; font-size: 12px; font-style: normal; font-variant-ligatures: normal; font-variant-caps: normal; font-weight: 400; letter-spacing: normal; orphans: 2; text-align: center; text-indent: 0px; text-transform: none; widows: 2; word-spacing: 0px; -webkit-text-stroke-width: 0px; white-space: normal; background-color: rgb(236, 236, 236); text-decoration-thickness: initial; text-decoration-style: initial; text-decoration-color: initial; display: inline !important; float: none;&quot;&gt;string&lt;/span&gt;&#xa;&#xa;" style="shape=partialRectangle;html=1;whiteSpace=wrap;connectable=0;strokeColor=inherit;overflow=hidden;fillColor=none;top=0;left=0;bottom=0;right=0;pointerEvents=1;" vertex="1" parent="Lo_Y75DreQVUA2kq9Nu9-75">
          <mxGeometry width="63" height="58" as="geometry">
            <mxRectangle width="63" height="58" as="alternateBounds" />
          </mxGeometry>
        </mxCell>
        <mxCell id="Lo_Y75DreQVUA2kq9Nu9-77" value="language_code" style="shape=partialRectangle;html=1;whiteSpace=wrap;connectable=0;strokeColor=inherit;overflow=hidden;fillColor=none;top=0;left=0;bottom=0;right=0;pointerEvents=1;" vertex="1" parent="Lo_Y75DreQVUA2kq9Nu9-75">
          <mxGeometry x="63" width="96" height="58" as="geometry">
            <mxRectangle width="96" height="58" as="alternateBounds" />
          </mxGeometry>
        </mxCell>
        <mxCell id="Lo_Y75DreQVUA2kq9Nu9-78" value="" style="shape=partialRectangle;html=1;whiteSpace=wrap;connectable=0;strokeColor=inherit;overflow=hidden;fillColor=none;top=0;left=0;bottom=0;right=0;pointerEvents=1;" vertex="1" parent="Lo_Y75DreQVUA2kq9Nu9-75">
          <mxGeometry x="159" width="51" height="58" as="geometry">
            <mxRectangle width="51" height="58" as="alternateBounds" />
          </mxGeometry>
        </mxCell>
        <mxCell id="Lo_Y75DreQVUA2kq9Nu9-83" value="CUSTOMERÂ " style="shape=table;startSize=30;container=1;collapsible=0;childLayout=tableLayout;" vertex="1" parent="1">
          <mxGeometry x="-300" y="240" width="210" height="250" as="geometry" />
        </mxCell>
        <mxCell id="Lo_Y75DreQVUA2kq9Nu9-84" value="" style="shape=tableRow;horizontal=0;startSize=0;swimlaneHead=0;swimlaneBody=0;strokeColor=inherit;top=0;left=0;bottom=0;right=0;collapsible=0;dropTarget=0;fillColor=none;points=[[0,0.5],[1,0.5]];portConstraint=eastwest;" vertex="1" parent="Lo_Y75DreQVUA2kq9Nu9-83">
          <mxGeometry y="30" width="210" height="28" as="geometry" />
        </mxCell>
        <mxCell id="Lo_Y75DreQVUA2kq9Nu9-85" value="int" style="shape=partialRectangle;html=1;whiteSpace=wrap;connectable=0;strokeColor=inherit;overflow=hidden;fillColor=none;top=0;left=0;bottom=0;right=0;pointerEvents=1;" vertex="1" parent="Lo_Y75DreQVUA2kq9Nu9-84">
          <mxGeometry width="60" height="28" as="geometry">
            <mxRectangle width="60" height="28" as="alternateBounds" />
          </mxGeometry>
        </mxCell>
        <mxCell id="Lo_Y75DreQVUA2kq9Nu9-86" value="customer_id" style="shape=partialRectangle;html=1;whiteSpace=wrap;connectable=0;strokeColor=inherit;overflow=hidden;fillColor=none;top=0;left=0;bottom=0;right=0;pointerEvents=1;" vertex="1" parent="Lo_Y75DreQVUA2kq9Nu9-84">
          <mxGeometry x="60" width="90" height="28" as="geometry">
            <mxRectangle width="90" height="28" as="alternateBounds" />
          </mxGeometry>
        </mxCell>
        <mxCell id="Lo_Y75DreQVUA2kq9Nu9-87" value="PK" style="shape=partialRectangle;html=1;whiteSpace=wrap;connectable=0;strokeColor=inherit;overflow=hidden;fillColor=none;top=0;left=0;bottom=0;right=0;pointerEvents=1;" vertex="1" parent="Lo_Y75DreQVUA2kq9Nu9-84">
          <mxGeometry x="150" width="60" height="28" as="geometry">
            <mxRectangle width="60" height="28" as="alternateBounds" />
          </mxGeometry>
        </mxCell>
        <mxCell id="Lo_Y75DreQVUA2kq9Nu9-88" value="" style="shape=tableRow;horizontal=0;startSize=0;swimlaneHead=0;swimlaneBody=0;strokeColor=inherit;top=0;left=0;bottom=0;right=0;collapsible=0;dropTarget=0;fillColor=none;points=[[0,0.5],[1,0.5]];portConstraint=eastwest;" vertex="1" parent="Lo_Y75DreQVUA2kq9Nu9-83">
          <mxGeometry y="58" width="210" height="39" as="geometry" />
        </mxCell>
        <mxCell id="Lo_Y75DreQVUA2kq9Nu9-89" value="string" style="shape=partialRectangle;html=1;whiteSpace=wrap;connectable=0;strokeColor=inherit;overflow=hidden;fillColor=none;top=0;left=0;bottom=0;right=0;pointerEvents=1;" vertex="1" parent="Lo_Y75DreQVUA2kq9Nu9-88">
          <mxGeometry width="60" height="39" as="geometry">
            <mxRectangle width="60" height="39" as="alternateBounds" />
          </mxGeometry>
        </mxCell>
        <mxCell id="Lo_Y75DreQVUA2kq9Nu9-90" value="first_name" style="shape=partialRectangle;html=1;whiteSpace=wrap;connectable=0;strokeColor=inherit;overflow=hidden;fillColor=none;top=0;left=0;bottom=0;right=0;pointerEvents=1;" vertex="1" parent="Lo_Y75DreQVUA2kq9Nu9-88">
          <mxGeometry x="60" width="90" height="39" as="geometry">
            <mxRectangle width="90" height="39" as="alternateBounds" />
          </mxGeometry>
        </mxCell>
        <mxCell id="Lo_Y75DreQVUA2kq9Nu9-91" value="" style="shape=partialRectangle;html=1;whiteSpace=wrap;connectable=0;strokeColor=inherit;overflow=hidden;fillColor=none;top=0;left=0;bottom=0;right=0;pointerEvents=1;" vertex="1" parent="Lo_Y75DreQVUA2kq9Nu9-88">
          <mxGeometry x="150" width="60" height="39" as="geometry">
            <mxRectangle width="60" height="39" as="alternateBounds" />
          </mxGeometry>
        </mxCell>
        <mxCell id="Lo_Y75DreQVUA2kq9Nu9-92" value="" style="shape=tableRow;horizontal=0;startSize=0;swimlaneHead=0;swimlaneBody=0;strokeColor=inherit;top=0;left=0;bottom=0;right=0;collapsible=0;dropTarget=0;fillColor=none;points=[[0,0.5],[1,0.5]];portConstraint=eastwest;" vertex="1" parent="Lo_Y75DreQVUA2kq9Nu9-83">
          <mxGeometry y="97" width="210" height="38" as="geometry" />
        </mxCell>
        <mxCell id="Lo_Y75DreQVUA2kq9Nu9-93" value="&#xa;&lt;span style=&quot;color: rgb(0, 0, 0); font-family: Helvetica; font-size: 12px; font-style: normal; font-variant-ligatures: normal; font-variant-caps: normal; font-weight: 400; letter-spacing: normal; orphans: 2; text-align: center; text-indent: 0px; text-transform: none; widows: 2; word-spacing: 0px; -webkit-text-stroke-width: 0px; white-space: normal; background-color: rgb(236, 236, 236); text-decoration-thickness: initial; text-decoration-style: initial; text-decoration-color: initial; display: inline !important; float: none;&quot;&gt;string&lt;/span&gt;&#xa;&#xa;" style="shape=partialRectangle;html=1;whiteSpace=wrap;connectable=0;strokeColor=inherit;overflow=hidden;fillColor=none;top=0;left=0;bottom=0;right=0;pointerEvents=1;" vertex="1" parent="Lo_Y75DreQVUA2kq9Nu9-92">
          <mxGeometry width="60" height="38" as="geometry">
            <mxRectangle width="60" height="38" as="alternateBounds" />
          </mxGeometry>
        </mxCell>
        <mxCell id="Lo_Y75DreQVUA2kq9Nu9-94" value="last_name" style="shape=partialRectangle;html=1;whiteSpace=wrap;connectable=0;strokeColor=inherit;overflow=hidden;fillColor=none;top=0;left=0;bottom=0;right=0;pointerEvents=1;" vertex="1" parent="Lo_Y75DreQVUA2kq9Nu9-92">
          <mxGeometry x="60" width="90" height="38" as="geometry">
            <mxRectangle width="90" height="38" as="alternateBounds" />
          </mxGeometry>
        </mxCell>
        <mxCell id="Lo_Y75DreQVUA2kq9Nu9-95" value="" style="shape=partialRectangle;html=1;whiteSpace=wrap;connectable=0;strokeColor=inherit;overflow=hidden;fillColor=none;top=0;left=0;bottom=0;right=0;pointerEvents=1;" vertex="1" parent="Lo_Y75DreQVUA2kq9Nu9-92">
          <mxGeometry x="150" width="60" height="38" as="geometry">
            <mxRectangle width="60" height="38" as="alternateBounds" />
          </mxGeometry>
        </mxCell>
        <mxCell id="Lo_Y75DreQVUA2kq9Nu9-96" value="" style="shape=tableRow;horizontal=0;startSize=0;swimlaneHead=0;swimlaneBody=0;strokeColor=inherit;top=0;left=0;bottom=0;right=0;collapsible=0;dropTarget=0;fillColor=none;points=[[0,0.5],[1,0.5]];portConstraint=eastwest;" vertex="1" parent="Lo_Y75DreQVUA2kq9Nu9-83">
          <mxGeometry y="135" width="210" height="39" as="geometry" />
        </mxCell>
        <mxCell id="Lo_Y75DreQVUA2kq9Nu9-97" value="string" style="shape=partialRectangle;html=1;whiteSpace=wrap;connectable=0;strokeColor=inherit;overflow=hidden;fillColor=none;top=0;left=0;bottom=0;right=0;pointerEvents=1;" vertex="1" parent="Lo_Y75DreQVUA2kq9Nu9-96">
          <mxGeometry width="60" height="39" as="geometry">
            <mxRectangle width="60" height="39" as="alternateBounds" />
          </mxGeometry>
        </mxCell>
        <mxCell id="Lo_Y75DreQVUA2kq9Nu9-98" value="email" style="shape=partialRectangle;html=1;whiteSpace=wrap;connectable=0;strokeColor=inherit;overflow=hidden;fillColor=none;top=0;left=0;bottom=0;right=0;pointerEvents=1;" vertex="1" parent="Lo_Y75DreQVUA2kq9Nu9-96">
          <mxGeometry x="60" width="90" height="39" as="geometry">
            <mxRectangle width="90" height="39" as="alternateBounds" />
          </mxGeometry>
        </mxCell>
        <mxCell id="Lo_Y75DreQVUA2kq9Nu9-99" value="" style="shape=partialRectangle;html=1;whiteSpace=wrap;connectable=0;strokeColor=inherit;overflow=hidden;fillColor=none;top=0;left=0;bottom=0;right=0;pointerEvents=1;" vertex="1" parent="Lo_Y75DreQVUA2kq9Nu9-96">
          <mxGeometry x="150" width="60" height="39" as="geometry">
            <mxRectangle width="60" height="39" as="alternateBounds" />
          </mxGeometry>
        </mxCell>
        <mxCell id="Lo_Y75DreQVUA2kq9Nu9-100" value="" style="shape=tableRow;horizontal=0;startSize=0;swimlaneHead=0;swimlaneBody=0;strokeColor=inherit;top=0;left=0;bottom=0;right=0;collapsible=0;dropTarget=0;fillColor=none;points=[[0,0.5],[1,0.5]];portConstraint=eastwest;" vertex="1" parent="Lo_Y75DreQVUA2kq9Nu9-83">
          <mxGeometry y="174" width="210" height="37" as="geometry" />
        </mxCell>
        <mxCell id="Lo_Y75DreQVUA2kq9Nu9-101" value="string" style="shape=partialRectangle;html=1;whiteSpace=wrap;connectable=0;strokeColor=inherit;overflow=hidden;fillColor=none;top=0;left=0;bottom=0;right=0;pointerEvents=1;" vertex="1" parent="Lo_Y75DreQVUA2kq9Nu9-100">
          <mxGeometry width="60" height="37" as="geometry">
            <mxRectangle width="60" height="37" as="alternateBounds" />
          </mxGeometry>
        </mxCell>
        <mxCell id="Lo_Y75DreQVUA2kq9Nu9-102" value="phone" style="shape=partialRectangle;html=1;whiteSpace=wrap;connectable=0;strokeColor=inherit;overflow=hidden;fillColor=none;top=0;left=0;bottom=0;right=0;pointerEvents=1;" vertex="1" parent="Lo_Y75DreQVUA2kq9Nu9-100">
          <mxGeometry x="60" width="90" height="37" as="geometry">
            <mxRectangle width="90" height="37" as="alternateBounds" />
          </mxGeometry>
        </mxCell>
        <mxCell id="Lo_Y75DreQVUA2kq9Nu9-103" value="" style="shape=partialRectangle;html=1;whiteSpace=wrap;connectable=0;strokeColor=inherit;overflow=hidden;fillColor=none;top=0;left=0;bottom=0;right=0;pointerEvents=1;" vertex="1" parent="Lo_Y75DreQVUA2kq9Nu9-100">
          <mxGeometry x="150" width="60" height="37" as="geometry">
            <mxRectangle width="60" height="37" as="alternateBounds" />
          </mxGeometry>
        </mxCell>
        <mxCell id="Lo_Y75DreQVUA2kq9Nu9-104" value="" style="shape=tableRow;horizontal=0;startSize=0;swimlaneHead=0;swimlaneBody=0;strokeColor=inherit;top=0;left=0;bottom=0;right=0;collapsible=0;dropTarget=0;fillColor=none;points=[[0,0.5],[1,0.5]];portConstraint=eastwest;" vertex="1" parent="Lo_Y75DreQVUA2kq9Nu9-83">
          <mxGeometry y="211" width="210" height="39" as="geometry" />
        </mxCell>
        <mxCell id="Lo_Y75DreQVUA2kq9Nu9-105" value="timestamp" style="shape=partialRectangle;html=1;whiteSpace=wrap;connectable=0;strokeColor=inherit;overflow=hidden;fillColor=none;top=0;left=0;bottom=0;right=0;pointerEvents=1;" vertex="1" parent="Lo_Y75DreQVUA2kq9Nu9-104">
          <mxGeometry width="60" height="39" as="geometry">
            <mxRectangle width="60" height="39" as="alternateBounds" />
          </mxGeometry>
        </mxCell>
        <mxCell id="Lo_Y75DreQVUA2kq9Nu9-106" value="registered_at" style="shape=partialRectangle;html=1;whiteSpace=wrap;connectable=0;strokeColor=inherit;overflow=hidden;fillColor=none;top=0;left=0;bottom=0;right=0;pointerEvents=1;" vertex="1" parent="Lo_Y75DreQVUA2kq9Nu9-104">
          <mxGeometry x="60" width="90" height="39" as="geometry">
            <mxRectangle width="90" height="39" as="alternateBounds" />
          </mxGeometry>
        </mxCell>
        <mxCell id="Lo_Y75DreQVUA2kq9Nu9-107" value="" style="shape=partialRectangle;html=1;whiteSpace=wrap;connectable=0;strokeColor=inherit;overflow=hidden;fillColor=none;top=0;left=0;bottom=0;right=0;pointerEvents=1;" vertex="1" parent="Lo_Y75DreQVUA2kq9Nu9-104">
          <mxGeometry x="150" width="60" height="39" as="geometry">
            <mxRectangle width="60" height="39" as="alternateBounds" />
          </mxGeometry>
        </mxCell>
        <mxCell id="Lo_Y75DreQVUA2kq9Nu9-361" style="edgeStyle=orthogonalEdgeStyle;curved=1;rounded=0;orthogonalLoop=1;jettySize=auto;html=1;entryX=0.5;entryY=0;entryDx=0;entryDy=0;" edge="1" parent="1" source="Lo_Y75DreQVUA2kq9Nu9-108" target="Lo_Y75DreQVUA2kq9Nu9-231">
          <mxGeometry relative="1" as="geometry" />
        </mxCell>
        <mxCell id="Lo_Y75DreQVUA2kq9Nu9-108" value="ADDRESS" style="shape=table;startSize=30;container=1;collapsible=0;childLayout=tableLayout;" vertex="1" parent="1">
          <mxGeometry x="-30" y="240" width="210" height="250" as="geometry" />
        </mxCell>
        <mxCell id="Lo_Y75DreQVUA2kq9Nu9-109" value="" style="shape=tableRow;horizontal=0;startSize=0;swimlaneHead=0;swimlaneBody=0;strokeColor=inherit;top=0;left=0;bottom=0;right=0;collapsible=0;dropTarget=0;fillColor=none;points=[[0,0.5],[1,0.5]];portConstraint=eastwest;" vertex="1" parent="Lo_Y75DreQVUA2kq9Nu9-108">
          <mxGeometry y="30" width="210" height="28" as="geometry" />
        </mxCell>
        <mxCell id="Lo_Y75DreQVUA2kq9Nu9-110" value="int" style="shape=partialRectangle;html=1;whiteSpace=wrap;connectable=0;strokeColor=inherit;overflow=hidden;fillColor=none;top=0;left=0;bottom=0;right=0;pointerEvents=1;" vertex="1" parent="Lo_Y75DreQVUA2kq9Nu9-109">
          <mxGeometry width="60" height="28" as="geometry">
            <mxRectangle width="60" height="28" as="alternateBounds" />
          </mxGeometry>
        </mxCell>
        <mxCell id="Lo_Y75DreQVUA2kq9Nu9-111" value="address_id" style="shape=partialRectangle;html=1;whiteSpace=wrap;connectable=0;strokeColor=inherit;overflow=hidden;fillColor=none;top=0;left=0;bottom=0;right=0;pointerEvents=1;" vertex="1" parent="Lo_Y75DreQVUA2kq9Nu9-109">
          <mxGeometry x="60" width="90" height="28" as="geometry">
            <mxRectangle width="90" height="28" as="alternateBounds" />
          </mxGeometry>
        </mxCell>
        <mxCell id="Lo_Y75DreQVUA2kq9Nu9-112" value="PK" style="shape=partialRectangle;html=1;whiteSpace=wrap;connectable=0;strokeColor=inherit;overflow=hidden;fillColor=none;top=0;left=0;bottom=0;right=0;pointerEvents=1;" vertex="1" parent="Lo_Y75DreQVUA2kq9Nu9-109">
          <mxGeometry x="150" width="60" height="28" as="geometry">
            <mxRectangle width="60" height="28" as="alternateBounds" />
          </mxGeometry>
        </mxCell>
        <mxCell id="Lo_Y75DreQVUA2kq9Nu9-113" value="" style="shape=tableRow;horizontal=0;startSize=0;swimlaneHead=0;swimlaneBody=0;strokeColor=inherit;top=0;left=0;bottom=0;right=0;collapsible=0;dropTarget=0;fillColor=none;points=[[0,0.5],[1,0.5]];portConstraint=eastwest;" vertex="1" parent="Lo_Y75DreQVUA2kq9Nu9-108">
          <mxGeometry y="58" width="210" height="39" as="geometry" />
        </mxCell>
        <mxCell id="Lo_Y75DreQVUA2kq9Nu9-114" value="string" style="shape=partialRectangle;html=1;whiteSpace=wrap;connectable=0;strokeColor=inherit;overflow=hidden;fillColor=none;top=0;left=0;bottom=0;right=0;pointerEvents=1;" vertex="1" parent="Lo_Y75DreQVUA2kq9Nu9-113">
          <mxGeometry width="60" height="39" as="geometry">
            <mxRectangle width="60" height="39" as="alternateBounds" />
          </mxGeometry>
        </mxCell>
        <mxCell id="Lo_Y75DreQVUA2kq9Nu9-115" value="street" style="shape=partialRectangle;html=1;whiteSpace=wrap;connectable=0;strokeColor=inherit;overflow=hidden;fillColor=none;top=0;left=0;bottom=0;right=0;pointerEvents=1;" vertex="1" parent="Lo_Y75DreQVUA2kq9Nu9-113">
          <mxGeometry x="60" width="90" height="39" as="geometry">
            <mxRectangle width="90" height="39" as="alternateBounds" />
          </mxGeometry>
        </mxCell>
        <mxCell id="Lo_Y75DreQVUA2kq9Nu9-116" value="" style="shape=partialRectangle;html=1;whiteSpace=wrap;connectable=0;strokeColor=inherit;overflow=hidden;fillColor=none;top=0;left=0;bottom=0;right=0;pointerEvents=1;" vertex="1" parent="Lo_Y75DreQVUA2kq9Nu9-113">
          <mxGeometry x="150" width="60" height="39" as="geometry">
            <mxRectangle width="60" height="39" as="alternateBounds" />
          </mxGeometry>
        </mxCell>
        <mxCell id="Lo_Y75DreQVUA2kq9Nu9-117" value="" style="shape=tableRow;horizontal=0;startSize=0;swimlaneHead=0;swimlaneBody=0;strokeColor=inherit;top=0;left=0;bottom=0;right=0;collapsible=0;dropTarget=0;fillColor=none;points=[[0,0.5],[1,0.5]];portConstraint=eastwest;" vertex="1" parent="Lo_Y75DreQVUA2kq9Nu9-108">
          <mxGeometry y="97" width="210" height="38" as="geometry" />
        </mxCell>
        <mxCell id="Lo_Y75DreQVUA2kq9Nu9-118" value="&#xa;&lt;span style=&quot;color: rgb(0, 0, 0); font-family: Helvetica; font-size: 12px; font-style: normal; font-variant-ligatures: normal; font-variant-caps: normal; font-weight: 400; letter-spacing: normal; orphans: 2; text-align: center; text-indent: 0px; text-transform: none; widows: 2; word-spacing: 0px; -webkit-text-stroke-width: 0px; white-space: normal; background-color: rgb(236, 236, 236); text-decoration-thickness: initial; text-decoration-style: initial; text-decoration-color: initial; display: inline !important; float: none;&quot;&gt;string&lt;/span&gt;&#xa;&#xa;" style="shape=partialRectangle;html=1;whiteSpace=wrap;connectable=0;strokeColor=inherit;overflow=hidden;fillColor=none;top=0;left=0;bottom=0;right=0;pointerEvents=1;" vertex="1" parent="Lo_Y75DreQVUA2kq9Nu9-117">
          <mxGeometry width="60" height="38" as="geometry">
            <mxRectangle width="60" height="38" as="alternateBounds" />
          </mxGeometry>
        </mxCell>
        <mxCell id="Lo_Y75DreQVUA2kq9Nu9-119" value="city" style="shape=partialRectangle;html=1;whiteSpace=wrap;connectable=0;strokeColor=inherit;overflow=hidden;fillColor=none;top=0;left=0;bottom=0;right=0;pointerEvents=1;" vertex="1" parent="Lo_Y75DreQVUA2kq9Nu9-117">
          <mxGeometry x="60" width="90" height="38" as="geometry">
            <mxRectangle width="90" height="38" as="alternateBounds" />
          </mxGeometry>
        </mxCell>
        <mxCell id="Lo_Y75DreQVUA2kq9Nu9-120" value="" style="shape=partialRectangle;html=1;whiteSpace=wrap;connectable=0;strokeColor=inherit;overflow=hidden;fillColor=none;top=0;left=0;bottom=0;right=0;pointerEvents=1;" vertex="1" parent="Lo_Y75DreQVUA2kq9Nu9-117">
          <mxGeometry x="150" width="60" height="38" as="geometry">
            <mxRectangle width="60" height="38" as="alternateBounds" />
          </mxGeometry>
        </mxCell>
        <mxCell id="Lo_Y75DreQVUA2kq9Nu9-121" value="" style="shape=tableRow;horizontal=0;startSize=0;swimlaneHead=0;swimlaneBody=0;strokeColor=inherit;top=0;left=0;bottom=0;right=0;collapsible=0;dropTarget=0;fillColor=none;points=[[0,0.5],[1,0.5]];portConstraint=eastwest;" vertex="1" parent="Lo_Y75DreQVUA2kq9Nu9-108">
          <mxGeometry y="135" width="210" height="39" as="geometry" />
        </mxCell>
        <mxCell id="Lo_Y75DreQVUA2kq9Nu9-122" value="string" style="shape=partialRectangle;html=1;whiteSpace=wrap;connectable=0;strokeColor=inherit;overflow=hidden;fillColor=none;top=0;left=0;bottom=0;right=0;pointerEvents=1;" vertex="1" parent="Lo_Y75DreQVUA2kq9Nu9-121">
          <mxGeometry width="60" height="39" as="geometry">
            <mxRectangle width="60" height="39" as="alternateBounds" />
          </mxGeometry>
        </mxCell>
        <mxCell id="Lo_Y75DreQVUA2kq9Nu9-123" value="state_province&amp;nbsp;" style="shape=partialRectangle;html=1;whiteSpace=wrap;connectable=0;strokeColor=inherit;overflow=hidden;fillColor=none;top=0;left=0;bottom=0;right=0;pointerEvents=1;" vertex="1" parent="Lo_Y75DreQVUA2kq9Nu9-121">
          <mxGeometry x="60" width="90" height="39" as="geometry">
            <mxRectangle width="90" height="39" as="alternateBounds" />
          </mxGeometry>
        </mxCell>
        <mxCell id="Lo_Y75DreQVUA2kq9Nu9-124" value="" style="shape=partialRectangle;html=1;whiteSpace=wrap;connectable=0;strokeColor=inherit;overflow=hidden;fillColor=none;top=0;left=0;bottom=0;right=0;pointerEvents=1;" vertex="1" parent="Lo_Y75DreQVUA2kq9Nu9-121">
          <mxGeometry x="150" width="60" height="39" as="geometry">
            <mxRectangle width="60" height="39" as="alternateBounds" />
          </mxGeometry>
        </mxCell>
        <mxCell id="Lo_Y75DreQVUA2kq9Nu9-125" value="" style="shape=tableRow;horizontal=0;startSize=0;swimlaneHead=0;swimlaneBody=0;strokeColor=inherit;top=0;left=0;bottom=0;right=0;collapsible=0;dropTarget=0;fillColor=none;points=[[0,0.5],[1,0.5]];portConstraint=eastwest;" vertex="1" parent="Lo_Y75DreQVUA2kq9Nu9-108">
          <mxGeometry y="174" width="210" height="37" as="geometry" />
        </mxCell>
        <mxCell id="Lo_Y75DreQVUA2kq9Nu9-126" value="string" style="shape=partialRectangle;html=1;whiteSpace=wrap;connectable=0;strokeColor=inherit;overflow=hidden;fillColor=none;top=0;left=0;bottom=0;right=0;pointerEvents=1;" vertex="1" parent="Lo_Y75DreQVUA2kq9Nu9-125">
          <mxGeometry width="60" height="37" as="geometry">
            <mxRectangle width="60" height="37" as="alternateBounds" />
          </mxGeometry>
        </mxCell>
        <mxCell id="Lo_Y75DreQVUA2kq9Nu9-127" value="postal_code" style="shape=partialRectangle;html=1;whiteSpace=wrap;connectable=0;strokeColor=inherit;overflow=hidden;fillColor=none;top=0;left=0;bottom=0;right=0;pointerEvents=1;" vertex="1" parent="Lo_Y75DreQVUA2kq9Nu9-125">
          <mxGeometry x="60" width="90" height="37" as="geometry">
            <mxRectangle width="90" height="37" as="alternateBounds" />
          </mxGeometry>
        </mxCell>
        <mxCell id="Lo_Y75DreQVUA2kq9Nu9-128" value="" style="shape=partialRectangle;html=1;whiteSpace=wrap;connectable=0;strokeColor=inherit;overflow=hidden;fillColor=none;top=0;left=0;bottom=0;right=0;pointerEvents=1;" vertex="1" parent="Lo_Y75DreQVUA2kq9Nu9-125">
          <mxGeometry x="150" width="60" height="37" as="geometry">
            <mxRectangle width="60" height="37" as="alternateBounds" />
          </mxGeometry>
        </mxCell>
        <mxCell id="Lo_Y75DreQVUA2kq9Nu9-129" value="" style="shape=tableRow;horizontal=0;startSize=0;swimlaneHead=0;swimlaneBody=0;strokeColor=inherit;top=0;left=0;bottom=0;right=0;collapsible=0;dropTarget=0;fillColor=none;points=[[0,0.5],[1,0.5]];portConstraint=eastwest;" vertex="1" parent="Lo_Y75DreQVUA2kq9Nu9-108">
          <mxGeometry y="211" width="210" height="39" as="geometry" />
        </mxCell>
        <mxCell id="Lo_Y75DreQVUA2kq9Nu9-130" value="timestamp" style="shape=partialRectangle;html=1;whiteSpace=wrap;connectable=0;strokeColor=inherit;overflow=hidden;fillColor=none;top=0;left=0;bottom=0;right=0;pointerEvents=1;" vertex="1" parent="Lo_Y75DreQVUA2kq9Nu9-129">
          <mxGeometry width="60" height="39" as="geometry">
            <mxRectangle width="60" height="39" as="alternateBounds" />
          </mxGeometry>
        </mxCell>
        <mxCell id="Lo_Y75DreQVUA2kq9Nu9-131" value="country_id" style="shape=partialRectangle;html=1;whiteSpace=wrap;connectable=0;strokeColor=inherit;overflow=hidden;fillColor=none;top=0;left=0;bottom=0;right=0;pointerEvents=1;" vertex="1" parent="Lo_Y75DreQVUA2kq9Nu9-129">
          <mxGeometry x="60" width="90" height="39" as="geometry">
            <mxRectangle width="90" height="39" as="alternateBounds" />
          </mxGeometry>
        </mxCell>
        <mxCell id="Lo_Y75DreQVUA2kq9Nu9-132" value="FK" style="shape=partialRectangle;html=1;whiteSpace=wrap;connectable=0;strokeColor=inherit;overflow=hidden;fillColor=none;top=0;left=0;bottom=0;right=0;pointerEvents=1;" vertex="1" parent="Lo_Y75DreQVUA2kq9Nu9-129">
          <mxGeometry x="150" width="60" height="39" as="geometry">
            <mxRectangle width="60" height="39" as="alternateBounds" />
          </mxGeometry>
        </mxCell>
        <mxCell id="Lo_Y75DreQVUA2kq9Nu9-362" style="edgeStyle=orthogonalEdgeStyle;curved=1;rounded=0;orthogonalLoop=1;jettySize=auto;html=1;" edge="1" parent="1" source="Lo_Y75DreQVUA2kq9Nu9-133">
          <mxGeometry relative="1" as="geometry">
            <mxPoint x="200" y="770" as="targetPoint" />
          </mxGeometry>
        </mxCell>
        <mxCell id="Lo_Y75DreQVUA2kq9Nu9-133" value="ADRESS-STATUS" style="shape=table;startSize=30;container=1;collapsible=0;childLayout=tableLayout;" vertex="1" parent="1">
          <mxGeometry x="300" y="280" width="180" height="110" as="geometry" />
        </mxCell>
        <mxCell id="Lo_Y75DreQVUA2kq9Nu9-134" value="" style="shape=tableRow;horizontal=0;startSize=0;swimlaneHead=0;swimlaneBody=0;strokeColor=inherit;top=0;left=0;bottom=0;right=0;collapsible=0;dropTarget=0;fillColor=none;points=[[0,0.5],[1,0.5]];portConstraint=eastwest;" vertex="1" parent="Lo_Y75DreQVUA2kq9Nu9-133">
          <mxGeometry y="30" width="180" height="40" as="geometry" />
        </mxCell>
        <mxCell id="Lo_Y75DreQVUA2kq9Nu9-135" value="int" style="shape=partialRectangle;html=1;whiteSpace=wrap;connectable=0;strokeColor=inherit;overflow=hidden;fillColor=none;top=0;left=0;bottom=0;right=0;pointerEvents=1;" vertex="1" parent="Lo_Y75DreQVUA2kq9Nu9-134">
          <mxGeometry width="60" height="40" as="geometry">
            <mxRectangle width="60" height="40" as="alternateBounds" />
          </mxGeometry>
        </mxCell>
        <mxCell id="Lo_Y75DreQVUA2kq9Nu9-136" value="status_id&amp;nbsp;" style="shape=partialRectangle;html=1;whiteSpace=wrap;connectable=0;strokeColor=inherit;overflow=hidden;fillColor=none;top=0;left=0;bottom=0;right=0;pointerEvents=1;" vertex="1" parent="Lo_Y75DreQVUA2kq9Nu9-134">
          <mxGeometry x="60" width="75" height="40" as="geometry">
            <mxRectangle width="75" height="40" as="alternateBounds" />
          </mxGeometry>
        </mxCell>
        <mxCell id="Lo_Y75DreQVUA2kq9Nu9-137" value="PK" style="shape=partialRectangle;html=1;whiteSpace=wrap;connectable=0;strokeColor=inherit;overflow=hidden;fillColor=none;top=0;left=0;bottom=0;right=0;pointerEvents=1;" vertex="1" parent="Lo_Y75DreQVUA2kq9Nu9-134">
          <mxGeometry x="135" width="45" height="40" as="geometry">
            <mxRectangle width="45" height="40" as="alternateBounds" />
          </mxGeometry>
        </mxCell>
        <mxCell id="Lo_Y75DreQVUA2kq9Nu9-138" value="" style="shape=tableRow;horizontal=0;startSize=0;swimlaneHead=0;swimlaneBody=0;strokeColor=inherit;top=0;left=0;bottom=0;right=0;collapsible=0;dropTarget=0;fillColor=none;points=[[0,0.5],[1,0.5]];portConstraint=eastwest;" vertex="1" parent="Lo_Y75DreQVUA2kq9Nu9-133">
          <mxGeometry y="70" width="180" height="40" as="geometry" />
        </mxCell>
        <mxCell id="Lo_Y75DreQVUA2kq9Nu9-139" value="string" style="shape=partialRectangle;html=1;whiteSpace=wrap;connectable=0;strokeColor=inherit;overflow=hidden;fillColor=none;top=0;left=0;bottom=0;right=0;pointerEvents=1;" vertex="1" parent="Lo_Y75DreQVUA2kq9Nu9-138">
          <mxGeometry width="60" height="40" as="geometry">
            <mxRectangle width="60" height="40" as="alternateBounds" />
          </mxGeometry>
        </mxCell>
        <mxCell id="Lo_Y75DreQVUA2kq9Nu9-140" value="status_name" style="shape=partialRectangle;html=1;whiteSpace=wrap;connectable=0;strokeColor=inherit;overflow=hidden;fillColor=none;top=0;left=0;bottom=0;right=0;pointerEvents=1;" vertex="1" parent="Lo_Y75DreQVUA2kq9Nu9-138">
          <mxGeometry x="60" width="75" height="40" as="geometry">
            <mxRectangle width="75" height="40" as="alternateBounds" />
          </mxGeometry>
        </mxCell>
        <mxCell id="Lo_Y75DreQVUA2kq9Nu9-141" value="" style="shape=partialRectangle;html=1;whiteSpace=wrap;connectable=0;strokeColor=inherit;overflow=hidden;fillColor=none;top=0;left=0;bottom=0;right=0;pointerEvents=1;" vertex="1" parent="Lo_Y75DreQVUA2kq9Nu9-138">
          <mxGeometry x="135" width="45" height="40" as="geometry">
            <mxRectangle width="45" height="40" as="alternateBounds" />
          </mxGeometry>
        </mxCell>
        <mxCell id="Lo_Y75DreQVUA2kq9Nu9-142" value="SHIPPING_METHOD" style="shape=table;startSize=30;container=1;collapsible=0;childLayout=tableLayout;" vertex="1" parent="1">
          <mxGeometry x="550" y="240" width="230" height="190" as="geometry" />
        </mxCell>
        <mxCell id="Lo_Y75DreQVUA2kq9Nu9-143" value="" style="shape=tableRow;horizontal=0;startSize=0;swimlaneHead=0;swimlaneBody=0;strokeColor=inherit;top=0;left=0;bottom=0;right=0;collapsible=0;dropTarget=0;fillColor=none;points=[[0,0.5],[1,0.5]];portConstraint=eastwest;" vertex="1" parent="Lo_Y75DreQVUA2kq9Nu9-142">
          <mxGeometry y="30" width="230" height="40" as="geometry" />
        </mxCell>
        <mxCell id="Lo_Y75DreQVUA2kq9Nu9-144" value="int" style="shape=partialRectangle;html=1;whiteSpace=wrap;connectable=0;strokeColor=inherit;overflow=hidden;fillColor=none;top=0;left=0;bottom=0;right=0;pointerEvents=1;" vertex="1" parent="Lo_Y75DreQVUA2kq9Nu9-143">
          <mxGeometry width="60" height="40" as="geometry">
            <mxRectangle width="60" height="40" as="alternateBounds" />
          </mxGeometry>
        </mxCell>
        <mxCell id="Lo_Y75DreQVUA2kq9Nu9-145" value="shipping_method_id" style="shape=partialRectangle;html=1;whiteSpace=wrap;connectable=0;strokeColor=inherit;overflow=hidden;fillColor=none;top=0;left=0;bottom=0;right=0;pointerEvents=1;" vertex="1" parent="Lo_Y75DreQVUA2kq9Nu9-143">
          <mxGeometry x="60" width="120" height="40" as="geometry">
            <mxRectangle width="120" height="40" as="alternateBounds" />
          </mxGeometry>
        </mxCell>
        <mxCell id="Lo_Y75DreQVUA2kq9Nu9-146" value="PK" style="shape=partialRectangle;html=1;whiteSpace=wrap;connectable=0;strokeColor=inherit;overflow=hidden;fillColor=none;top=0;left=0;bottom=0;right=0;pointerEvents=1;" vertex="1" parent="Lo_Y75DreQVUA2kq9Nu9-143">
          <mxGeometry x="180" width="50" height="40" as="geometry">
            <mxRectangle width="50" height="40" as="alternateBounds" />
          </mxGeometry>
        </mxCell>
        <mxCell id="Lo_Y75DreQVUA2kq9Nu9-147" value="" style="shape=tableRow;horizontal=0;startSize=0;swimlaneHead=0;swimlaneBody=0;strokeColor=inherit;top=0;left=0;bottom=0;right=0;collapsible=0;dropTarget=0;fillColor=none;points=[[0,0.5],[1,0.5]];portConstraint=eastwest;" vertex="1" parent="Lo_Y75DreQVUA2kq9Nu9-142">
          <mxGeometry y="70" width="230" height="40" as="geometry" />
        </mxCell>
        <mxCell id="Lo_Y75DreQVUA2kq9Nu9-148" value="string" style="shape=partialRectangle;html=1;whiteSpace=wrap;connectable=0;strokeColor=inherit;overflow=hidden;fillColor=none;top=0;left=0;bottom=0;right=0;pointerEvents=1;" vertex="1" parent="Lo_Y75DreQVUA2kq9Nu9-147">
          <mxGeometry width="60" height="40" as="geometry">
            <mxRectangle width="60" height="40" as="alternateBounds" />
          </mxGeometry>
        </mxCell>
        <mxCell id="Lo_Y75DreQVUA2kq9Nu9-149" value="method_name&amp;nbsp;" style="shape=partialRectangle;html=1;whiteSpace=wrap;connectable=0;strokeColor=inherit;overflow=hidden;fillColor=none;top=0;left=0;bottom=0;right=0;pointerEvents=1;" vertex="1" parent="Lo_Y75DreQVUA2kq9Nu9-147">
          <mxGeometry x="60" width="120" height="40" as="geometry">
            <mxRectangle width="120" height="40" as="alternateBounds" />
          </mxGeometry>
        </mxCell>
        <mxCell id="Lo_Y75DreQVUA2kq9Nu9-150" value="" style="shape=partialRectangle;html=1;whiteSpace=wrap;connectable=0;strokeColor=inherit;overflow=hidden;fillColor=none;top=0;left=0;bottom=0;right=0;pointerEvents=1;" vertex="1" parent="Lo_Y75DreQVUA2kq9Nu9-147">
          <mxGeometry x="180" width="50" height="40" as="geometry">
            <mxRectangle width="50" height="40" as="alternateBounds" />
          </mxGeometry>
        </mxCell>
        <mxCell id="Lo_Y75DreQVUA2kq9Nu9-151" value="" style="shape=tableRow;horizontal=0;startSize=0;swimlaneHead=0;swimlaneBody=0;strokeColor=inherit;top=0;left=0;bottom=0;right=0;collapsible=0;dropTarget=0;fillColor=none;points=[[0,0.5],[1,0.5]];portConstraint=eastwest;" vertex="1" parent="Lo_Y75DreQVUA2kq9Nu9-142">
          <mxGeometry y="110" width="230" height="40" as="geometry" />
        </mxCell>
        <mxCell id="Lo_Y75DreQVUA2kq9Nu9-152" value="string" style="shape=partialRectangle;html=1;whiteSpace=wrap;connectable=0;strokeColor=inherit;overflow=hidden;fillColor=none;top=0;left=0;bottom=0;right=0;pointerEvents=1;" vertex="1" parent="Lo_Y75DreQVUA2kq9Nu9-151">
          <mxGeometry width="60" height="40" as="geometry">
            <mxRectangle width="60" height="40" as="alternateBounds" />
          </mxGeometry>
        </mxCell>
        <mxCell id="Lo_Y75DreQVUA2kq9Nu9-153" value="details" style="shape=partialRectangle;html=1;whiteSpace=wrap;connectable=0;strokeColor=inherit;overflow=hidden;fillColor=none;top=0;left=0;bottom=0;right=0;pointerEvents=1;" vertex="1" parent="Lo_Y75DreQVUA2kq9Nu9-151">
          <mxGeometry x="60" width="120" height="40" as="geometry">
            <mxRectangle width="120" height="40" as="alternateBounds" />
          </mxGeometry>
        </mxCell>
        <mxCell id="Lo_Y75DreQVUA2kq9Nu9-154" value="" style="shape=partialRectangle;html=1;whiteSpace=wrap;connectable=0;strokeColor=inherit;overflow=hidden;fillColor=none;top=0;left=0;bottom=0;right=0;pointerEvents=1;" vertex="1" parent="Lo_Y75DreQVUA2kq9Nu9-151">
          <mxGeometry x="180" width="50" height="40" as="geometry">
            <mxRectangle width="50" height="40" as="alternateBounds" />
          </mxGeometry>
        </mxCell>
        <mxCell id="Lo_Y75DreQVUA2kq9Nu9-155" value="" style="shape=tableRow;horizontal=0;startSize=0;swimlaneHead=0;swimlaneBody=0;strokeColor=inherit;top=0;left=0;bottom=0;right=0;collapsible=0;dropTarget=0;fillColor=none;points=[[0,0.5],[1,0.5]];portConstraint=eastwest;" vertex="1" parent="Lo_Y75DreQVUA2kq9Nu9-142">
          <mxGeometry y="150" width="230" height="40" as="geometry" />
        </mxCell>
        <mxCell id="Lo_Y75DreQVUA2kq9Nu9-156" value="decimal&amp;nbsp;" style="shape=partialRectangle;html=1;whiteSpace=wrap;connectable=0;strokeColor=inherit;overflow=hidden;fillColor=none;top=0;left=0;bottom=0;right=0;pointerEvents=1;" vertex="1" parent="Lo_Y75DreQVUA2kq9Nu9-155">
          <mxGeometry width="60" height="40" as="geometry">
            <mxRectangle width="60" height="40" as="alternateBounds" />
          </mxGeometry>
        </mxCell>
        <mxCell id="Lo_Y75DreQVUA2kq9Nu9-157" value="costs&amp;nbsp;" style="shape=partialRectangle;html=1;whiteSpace=wrap;connectable=0;strokeColor=inherit;overflow=hidden;fillColor=none;top=0;left=0;bottom=0;right=0;pointerEvents=1;" vertex="1" parent="Lo_Y75DreQVUA2kq9Nu9-155">
          <mxGeometry x="60" width="120" height="40" as="geometry">
            <mxRectangle width="120" height="40" as="alternateBounds" />
          </mxGeometry>
        </mxCell>
        <mxCell id="Lo_Y75DreQVUA2kq9Nu9-158" value="" style="shape=partialRectangle;html=1;whiteSpace=wrap;connectable=0;strokeColor=inherit;overflow=hidden;fillColor=none;top=0;left=0;bottom=0;right=0;pointerEvents=1;" vertex="1" parent="Lo_Y75DreQVUA2kq9Nu9-155">
          <mxGeometry x="180" width="50" height="40" as="geometry">
            <mxRectangle width="50" height="40" as="alternateBounds" />
          </mxGeometry>
        </mxCell>
        <mxCell id="Lo_Y75DreQVUA2kq9Nu9-168" value="ORDER_STATUS" style="shape=table;startSize=30;container=1;collapsible=0;childLayout=tableLayout;" vertex="1" parent="1">
          <mxGeometry x="910" y="220" width="190" height="100" as="geometry" />
        </mxCell>
        <mxCell id="Lo_Y75DreQVUA2kq9Nu9-169" value="" style="shape=tableRow;horizontal=0;startSize=0;swimlaneHead=0;swimlaneBody=0;strokeColor=inherit;top=0;left=0;bottom=0;right=0;collapsible=0;dropTarget=0;fillColor=none;points=[[0,0.5],[1,0.5]];portConstraint=eastwest;" vertex="1" parent="Lo_Y75DreQVUA2kq9Nu9-168">
          <mxGeometry y="30" width="190" height="40" as="geometry" />
        </mxCell>
        <mxCell id="Lo_Y75DreQVUA2kq9Nu9-170" value="int" style="shape=partialRectangle;html=1;whiteSpace=wrap;connectable=0;strokeColor=inherit;overflow=hidden;fillColor=none;top=0;left=0;bottom=0;right=0;pointerEvents=1;" vertex="1" parent="Lo_Y75DreQVUA2kq9Nu9-169">
          <mxGeometry width="60" height="40" as="geometry">
            <mxRectangle width="60" height="40" as="alternateBounds" />
          </mxGeometry>
        </mxCell>
        <mxCell id="Lo_Y75DreQVUA2kq9Nu9-171" value="status_id" style="shape=partialRectangle;html=1;whiteSpace=wrap;connectable=0;strokeColor=inherit;overflow=hidden;fillColor=none;top=0;left=0;bottom=0;right=0;pointerEvents=1;" vertex="1" parent="Lo_Y75DreQVUA2kq9Nu9-169">
          <mxGeometry x="60" width="90" height="40" as="geometry">
            <mxRectangle width="90" height="40" as="alternateBounds" />
          </mxGeometry>
        </mxCell>
        <mxCell id="Lo_Y75DreQVUA2kq9Nu9-172" value="PK" style="shape=partialRectangle;html=1;whiteSpace=wrap;connectable=0;strokeColor=inherit;overflow=hidden;fillColor=none;top=0;left=0;bottom=0;right=0;pointerEvents=1;" vertex="1" parent="Lo_Y75DreQVUA2kq9Nu9-169">
          <mxGeometry x="150" width="40" height="40" as="geometry">
            <mxRectangle width="40" height="40" as="alternateBounds" />
          </mxGeometry>
        </mxCell>
        <mxCell id="Lo_Y75DreQVUA2kq9Nu9-173" value="" style="shape=tableRow;horizontal=0;startSize=0;swimlaneHead=0;swimlaneBody=0;strokeColor=inherit;top=0;left=0;bottom=0;right=0;collapsible=0;dropTarget=0;fillColor=none;points=[[0,0.5],[1,0.5]];portConstraint=eastwest;" vertex="1" parent="Lo_Y75DreQVUA2kq9Nu9-168">
          <mxGeometry y="70" width="190" height="30" as="geometry" />
        </mxCell>
        <mxCell id="Lo_Y75DreQVUA2kq9Nu9-174" value="string" style="shape=partialRectangle;html=1;whiteSpace=wrap;connectable=0;strokeColor=inherit;overflow=hidden;fillColor=none;top=0;left=0;bottom=0;right=0;pointerEvents=1;" vertex="1" parent="Lo_Y75DreQVUA2kq9Nu9-173">
          <mxGeometry width="60" height="30" as="geometry">
            <mxRectangle width="60" height="30" as="alternateBounds" />
          </mxGeometry>
        </mxCell>
        <mxCell id="Lo_Y75DreQVUA2kq9Nu9-175" value="status_name" style="shape=partialRectangle;html=1;whiteSpace=wrap;connectable=0;strokeColor=inherit;overflow=hidden;fillColor=none;top=0;left=0;bottom=0;right=0;pointerEvents=1;" vertex="1" parent="Lo_Y75DreQVUA2kq9Nu9-173">
          <mxGeometry x="60" width="90" height="30" as="geometry">
            <mxRectangle width="90" height="30" as="alternateBounds" />
          </mxGeometry>
        </mxCell>
        <mxCell id="Lo_Y75DreQVUA2kq9Nu9-176" value="" style="shape=partialRectangle;html=1;whiteSpace=wrap;connectable=0;strokeColor=inherit;overflow=hidden;fillColor=none;top=0;left=0;bottom=0;right=0;pointerEvents=1;" vertex="1" parent="Lo_Y75DreQVUA2kq9Nu9-173">
          <mxGeometry x="150" width="40" height="30" as="geometry">
            <mxRectangle width="40" height="30" as="alternateBounds" />
          </mxGeometry>
        </mxCell>
        <mxCell id="Lo_Y75DreQVUA2kq9Nu9-177" value="BOOK" style="shape=table;startSize=35;container=1;collapsible=0;childLayout=tableLayout;" vertex="1" parent="1">
          <mxGeometry x="-700" y="700" width="210" height="350" as="geometry" />
        </mxCell>
        <mxCell id="Lo_Y75DreQVUA2kq9Nu9-178" value="" style="shape=tableRow;horizontal=0;startSize=0;swimlaneHead=0;swimlaneBody=0;strokeColor=inherit;top=0;left=0;bottom=0;right=0;collapsible=0;dropTarget=0;fillColor=none;points=[[0,0.5],[1,0.5]];portConstraint=eastwest;" vertex="1" parent="Lo_Y75DreQVUA2kq9Nu9-177">
          <mxGeometry y="35" width="210" height="39" as="geometry" />
        </mxCell>
        <mxCell id="Lo_Y75DreQVUA2kq9Nu9-179" value="int" style="shape=partialRectangle;html=1;whiteSpace=wrap;connectable=0;strokeColor=inherit;overflow=hidden;fillColor=none;top=0;left=0;bottom=0;right=0;pointerEvents=1;" vertex="1" parent="Lo_Y75DreQVUA2kq9Nu9-178">
          <mxGeometry width="60" height="39" as="geometry">
            <mxRectangle width="60" height="39" as="alternateBounds" />
          </mxGeometry>
        </mxCell>
        <mxCell id="Lo_Y75DreQVUA2kq9Nu9-180" value="book_id" style="shape=partialRectangle;html=1;whiteSpace=wrap;connectable=0;strokeColor=inherit;overflow=hidden;fillColor=none;top=0;left=0;bottom=0;right=0;pointerEvents=1;" vertex="1" parent="Lo_Y75DreQVUA2kq9Nu9-178">
          <mxGeometry x="60" width="90" height="39" as="geometry">
            <mxRectangle width="90" height="39" as="alternateBounds" />
          </mxGeometry>
        </mxCell>
        <mxCell id="Lo_Y75DreQVUA2kq9Nu9-181" value="PK" style="shape=partialRectangle;html=1;whiteSpace=wrap;connectable=0;strokeColor=inherit;overflow=hidden;fillColor=none;top=0;left=0;bottom=0;right=0;pointerEvents=1;" vertex="1" parent="Lo_Y75DreQVUA2kq9Nu9-178">
          <mxGeometry x="150" width="60" height="39" as="geometry">
            <mxRectangle width="60" height="39" as="alternateBounds" />
          </mxGeometry>
        </mxCell>
        <mxCell id="Lo_Y75DreQVUA2kq9Nu9-182" value="" style="shape=tableRow;horizontal=0;startSize=0;swimlaneHead=0;swimlaneBody=0;strokeColor=inherit;top=0;left=0;bottom=0;right=0;collapsible=0;dropTarget=0;fillColor=none;points=[[0,0.5],[1,0.5]];portConstraint=eastwest;" vertex="1" parent="Lo_Y75DreQVUA2kq9Nu9-177">
          <mxGeometry y="74" width="210" height="40" as="geometry" />
        </mxCell>
        <mxCell id="Lo_Y75DreQVUA2kq9Nu9-183" value="string" style="shape=partialRectangle;html=1;whiteSpace=wrap;connectable=0;strokeColor=inherit;overflow=hidden;fillColor=none;top=0;left=0;bottom=0;right=0;pointerEvents=1;" vertex="1" parent="Lo_Y75DreQVUA2kq9Nu9-182">
          <mxGeometry width="60" height="40" as="geometry">
            <mxRectangle width="60" height="40" as="alternateBounds" />
          </mxGeometry>
        </mxCell>
        <mxCell id="Lo_Y75DreQVUA2kq9Nu9-184" value="title" style="shape=partialRectangle;html=1;whiteSpace=wrap;connectable=0;strokeColor=inherit;overflow=hidden;fillColor=none;top=0;left=0;bottom=0;right=0;pointerEvents=1;" vertex="1" parent="Lo_Y75DreQVUA2kq9Nu9-182">
          <mxGeometry x="60" width="90" height="40" as="geometry">
            <mxRectangle width="90" height="40" as="alternateBounds" />
          </mxGeometry>
        </mxCell>
        <mxCell id="Lo_Y75DreQVUA2kq9Nu9-185" value="" style="shape=partialRectangle;html=1;whiteSpace=wrap;connectable=0;strokeColor=inherit;overflow=hidden;fillColor=none;top=0;left=0;bottom=0;right=0;pointerEvents=1;" vertex="1" parent="Lo_Y75DreQVUA2kq9Nu9-182">
          <mxGeometry x="150" width="60" height="40" as="geometry">
            <mxRectangle width="60" height="40" as="alternateBounds" />
          </mxGeometry>
        </mxCell>
        <mxCell id="Lo_Y75DreQVUA2kq9Nu9-186" value="" style="shape=tableRow;horizontal=0;startSize=0;swimlaneHead=0;swimlaneBody=0;strokeColor=inherit;top=0;left=0;bottom=0;right=0;collapsible=0;dropTarget=0;fillColor=none;points=[[0,0.5],[1,0.5]];portConstraint=eastwest;" vertex="1" parent="Lo_Y75DreQVUA2kq9Nu9-177">
          <mxGeometry y="114" width="210" height="39" as="geometry" />
        </mxCell>
        <mxCell id="Lo_Y75DreQVUA2kq9Nu9-187" value="&#xa;&lt;span style=&quot;color: rgb(0, 0, 0); font-family: Helvetica; font-size: 12px; font-style: normal; font-variant-ligatures: normal; font-variant-caps: normal; font-weight: 400; letter-spacing: normal; orphans: 2; text-align: center; text-indent: 0px; text-transform: none; widows: 2; word-spacing: 0px; -webkit-text-stroke-width: 0px; white-space: normal; background-color: rgb(236, 236, 236); text-decoration-thickness: initial; text-decoration-style: initial; text-decoration-color: initial; display: inline !important; float: none;&quot;&gt;string&lt;/span&gt;&#xa;&#xa;" style="shape=partialRectangle;html=1;whiteSpace=wrap;connectable=0;strokeColor=inherit;overflow=hidden;fillColor=none;top=0;left=0;bottom=0;right=0;pointerEvents=1;" vertex="1" parent="Lo_Y75DreQVUA2kq9Nu9-186">
          <mxGeometry width="60" height="39" as="geometry">
            <mxRectangle width="60" height="39" as="alternateBounds" />
          </mxGeometry>
        </mxCell>
        <mxCell id="Lo_Y75DreQVUA2kq9Nu9-188" value="isbn" style="shape=partialRectangle;html=1;whiteSpace=wrap;connectable=0;strokeColor=inherit;overflow=hidden;fillColor=none;top=0;left=0;bottom=0;right=0;pointerEvents=1;" vertex="1" parent="Lo_Y75DreQVUA2kq9Nu9-186">
          <mxGeometry x="60" width="90" height="39" as="geometry">
            <mxRectangle width="90" height="39" as="alternateBounds" />
          </mxGeometry>
        </mxCell>
        <mxCell id="Lo_Y75DreQVUA2kq9Nu9-189" value="" style="shape=partialRectangle;html=1;whiteSpace=wrap;connectable=0;strokeColor=inherit;overflow=hidden;fillColor=none;top=0;left=0;bottom=0;right=0;pointerEvents=1;" vertex="1" parent="Lo_Y75DreQVUA2kq9Nu9-186">
          <mxGeometry x="150" width="60" height="39" as="geometry">
            <mxRectangle width="60" height="39" as="alternateBounds" />
          </mxGeometry>
        </mxCell>
        <mxCell id="Lo_Y75DreQVUA2kq9Nu9-190" value="" style="shape=tableRow;horizontal=0;startSize=0;swimlaneHead=0;swimlaneBody=0;strokeColor=inherit;top=0;left=0;bottom=0;right=0;collapsible=0;dropTarget=0;fillColor=none;points=[[0,0.5],[1,0.5]];portConstraint=eastwest;" vertex="1" parent="Lo_Y75DreQVUA2kq9Nu9-177">
          <mxGeometry y="153" width="210" height="40" as="geometry" />
        </mxCell>
        <mxCell id="Lo_Y75DreQVUA2kq9Nu9-191" value="date" style="shape=partialRectangle;html=1;whiteSpace=wrap;connectable=0;strokeColor=inherit;overflow=hidden;fillColor=none;top=0;left=0;bottom=0;right=0;pointerEvents=1;" vertex="1" parent="Lo_Y75DreQVUA2kq9Nu9-190">
          <mxGeometry width="60" height="40" as="geometry">
            <mxRectangle width="60" height="40" as="alternateBounds" />
          </mxGeometry>
        </mxCell>
        <mxCell id="Lo_Y75DreQVUA2kq9Nu9-192" value="publish_date" style="shape=partialRectangle;html=1;whiteSpace=wrap;connectable=0;strokeColor=inherit;overflow=hidden;fillColor=none;top=0;left=0;bottom=0;right=0;pointerEvents=1;" vertex="1" parent="Lo_Y75DreQVUA2kq9Nu9-190">
          <mxGeometry x="60" width="90" height="40" as="geometry">
            <mxRectangle width="90" height="40" as="alternateBounds" />
          </mxGeometry>
        </mxCell>
        <mxCell id="Lo_Y75DreQVUA2kq9Nu9-193" value="" style="shape=partialRectangle;html=1;whiteSpace=wrap;connectable=0;strokeColor=inherit;overflow=hidden;fillColor=none;top=0;left=0;bottom=0;right=0;pointerEvents=1;" vertex="1" parent="Lo_Y75DreQVUA2kq9Nu9-190">
          <mxGeometry x="150" width="60" height="40" as="geometry">
            <mxRectangle width="60" height="40" as="alternateBounds" />
          </mxGeometry>
        </mxCell>
        <mxCell id="Lo_Y75DreQVUA2kq9Nu9-194" value="" style="shape=tableRow;horizontal=0;startSize=0;swimlaneHead=0;swimlaneBody=0;strokeColor=inherit;top=0;left=0;bottom=0;right=0;collapsible=0;dropTarget=0;fillColor=none;points=[[0,0.5],[1,0.5]];portConstraint=eastwest;" vertex="1" parent="Lo_Y75DreQVUA2kq9Nu9-177">
          <mxGeometry y="193" width="210" height="39" as="geometry" />
        </mxCell>
        <mxCell id="Lo_Y75DreQVUA2kq9Nu9-195" value="decimal" style="shape=partialRectangle;html=1;whiteSpace=wrap;connectable=0;strokeColor=inherit;overflow=hidden;fillColor=none;top=0;left=0;bottom=0;right=0;pointerEvents=1;" vertex="1" parent="Lo_Y75DreQVUA2kq9Nu9-194">
          <mxGeometry width="60" height="39" as="geometry">
            <mxRectangle width="60" height="39" as="alternateBounds" />
          </mxGeometry>
        </mxCell>
        <mxCell id="Lo_Y75DreQVUA2kq9Nu9-196" value="price" style="shape=partialRectangle;html=1;whiteSpace=wrap;connectable=0;strokeColor=inherit;overflow=hidden;fillColor=none;top=0;left=0;bottom=0;right=0;pointerEvents=1;" vertex="1" parent="Lo_Y75DreQVUA2kq9Nu9-194">
          <mxGeometry x="60" width="90" height="39" as="geometry">
            <mxRectangle width="90" height="39" as="alternateBounds" />
          </mxGeometry>
        </mxCell>
        <mxCell id="Lo_Y75DreQVUA2kq9Nu9-197" value="" style="shape=partialRectangle;html=1;whiteSpace=wrap;connectable=0;strokeColor=inherit;overflow=hidden;fillColor=none;top=0;left=0;bottom=0;right=0;pointerEvents=1;" vertex="1" parent="Lo_Y75DreQVUA2kq9Nu9-194">
          <mxGeometry x="150" width="60" height="39" as="geometry">
            <mxRectangle width="60" height="39" as="alternateBounds" />
          </mxGeometry>
        </mxCell>
        <mxCell id="Lo_Y75DreQVUA2kq9Nu9-198" value="" style="shape=tableRow;horizontal=0;startSize=0;swimlaneHead=0;swimlaneBody=0;strokeColor=inherit;top=0;left=0;bottom=0;right=0;collapsible=0;dropTarget=0;fillColor=none;points=[[0,0.5],[1,0.5]];portConstraint=eastwest;" vertex="1" parent="Lo_Y75DreQVUA2kq9Nu9-177">
          <mxGeometry y="232" width="210" height="39" as="geometry" />
        </mxCell>
        <mxCell id="Lo_Y75DreQVUA2kq9Nu9-199" value="int" style="shape=partialRectangle;html=1;whiteSpace=wrap;connectable=0;strokeColor=inherit;overflow=hidden;fillColor=none;top=0;left=0;bottom=0;right=0;pointerEvents=1;" vertex="1" parent="Lo_Y75DreQVUA2kq9Nu9-198">
          <mxGeometry width="60" height="39" as="geometry">
            <mxRectangle width="60" height="39" as="alternateBounds" />
          </mxGeometry>
        </mxCell>
        <mxCell id="Lo_Y75DreQVUA2kq9Nu9-200" value="publish_id" style="shape=partialRectangle;html=1;whiteSpace=wrap;connectable=0;strokeColor=inherit;overflow=hidden;fillColor=none;top=0;left=0;bottom=0;right=0;pointerEvents=1;" vertex="1" parent="Lo_Y75DreQVUA2kq9Nu9-198">
          <mxGeometry x="60" width="90" height="39" as="geometry">
            <mxRectangle width="90" height="39" as="alternateBounds" />
          </mxGeometry>
        </mxCell>
        <mxCell id="Lo_Y75DreQVUA2kq9Nu9-201" value="FK" style="shape=partialRectangle;html=1;whiteSpace=wrap;connectable=0;strokeColor=inherit;overflow=hidden;fillColor=none;top=0;left=0;bottom=0;right=0;pointerEvents=1;" vertex="1" parent="Lo_Y75DreQVUA2kq9Nu9-198">
          <mxGeometry x="150" width="60" height="39" as="geometry">
            <mxRectangle width="60" height="39" as="alternateBounds" />
          </mxGeometry>
        </mxCell>
        <mxCell id="Lo_Y75DreQVUA2kq9Nu9-202" value="" style="shape=tableRow;horizontal=0;startSize=0;swimlaneHead=0;swimlaneBody=0;strokeColor=inherit;top=0;left=0;bottom=0;right=0;collapsible=0;dropTarget=0;fillColor=none;points=[[0,0.5],[1,0.5]];portConstraint=eastwest;" vertex="1" parent="Lo_Y75DreQVUA2kq9Nu9-177">
          <mxGeometry y="271" width="210" height="40" as="geometry" />
        </mxCell>
        <mxCell id="Lo_Y75DreQVUA2kq9Nu9-203" value="int" style="shape=partialRectangle;html=1;whiteSpace=wrap;connectable=0;strokeColor=inherit;overflow=hidden;fillColor=none;top=0;left=0;bottom=0;right=0;pointerEvents=1;" vertex="1" parent="Lo_Y75DreQVUA2kq9Nu9-202">
          <mxGeometry width="60" height="40" as="geometry">
            <mxRectangle width="60" height="40" as="alternateBounds" />
          </mxGeometry>
        </mxCell>
        <mxCell id="Lo_Y75DreQVUA2kq9Nu9-204" value="language_id" style="shape=partialRectangle;html=1;whiteSpace=wrap;connectable=0;strokeColor=inherit;overflow=hidden;fillColor=none;top=0;left=0;bottom=0;right=0;pointerEvents=1;" vertex="1" parent="Lo_Y75DreQVUA2kq9Nu9-202">
          <mxGeometry x="60" width="90" height="40" as="geometry">
            <mxRectangle width="90" height="40" as="alternateBounds" />
          </mxGeometry>
        </mxCell>
        <mxCell id="Lo_Y75DreQVUA2kq9Nu9-205" value="FK" style="shape=partialRectangle;html=1;whiteSpace=wrap;connectable=0;strokeColor=inherit;overflow=hidden;fillColor=none;top=0;left=0;bottom=0;right=0;pointerEvents=1;" vertex="1" parent="Lo_Y75DreQVUA2kq9Nu9-202">
          <mxGeometry x="150" width="60" height="40" as="geometry">
            <mxRectangle width="60" height="40" as="alternateBounds" />
          </mxGeometry>
        </mxCell>
        <mxCell id="Lo_Y75DreQVUA2kq9Nu9-206" value="" style="shape=tableRow;horizontal=0;startSize=0;swimlaneHead=0;swimlaneBody=0;strokeColor=inherit;top=0;left=0;bottom=0;right=0;collapsible=0;dropTarget=0;fillColor=none;points=[[0,0.5],[1,0.5]];portConstraint=eastwest;" vertex="1" parent="Lo_Y75DreQVUA2kq9Nu9-177">
          <mxGeometry y="311" width="210" height="39" as="geometry" />
        </mxCell>
        <mxCell id="Lo_Y75DreQVUA2kq9Nu9-207" value="string" style="shape=partialRectangle;html=1;whiteSpace=wrap;connectable=0;strokeColor=inherit;overflow=hidden;fillColor=none;top=0;left=0;bottom=0;right=0;pointerEvents=1;" vertex="1" parent="Lo_Y75DreQVUA2kq9Nu9-206">
          <mxGeometry width="60" height="39" as="geometry">
            <mxRectangle width="60" height="39" as="alternateBounds" />
          </mxGeometry>
        </mxCell>
        <mxCell id="Lo_Y75DreQVUA2kq9Nu9-208" value="description" style="shape=partialRectangle;html=1;whiteSpace=wrap;connectable=0;strokeColor=inherit;overflow=hidden;fillColor=none;top=0;left=0;bottom=0;right=0;pointerEvents=1;" vertex="1" parent="Lo_Y75DreQVUA2kq9Nu9-206">
          <mxGeometry x="60" width="90" height="39" as="geometry">
            <mxRectangle width="90" height="39" as="alternateBounds" />
          </mxGeometry>
        </mxCell>
        <mxCell id="Lo_Y75DreQVUA2kq9Nu9-209" value="" style="shape=partialRectangle;html=1;whiteSpace=wrap;connectable=0;strokeColor=inherit;overflow=hidden;fillColor=none;top=0;left=0;bottom=0;right=0;pointerEvents=1;" vertex="1" parent="Lo_Y75DreQVUA2kq9Nu9-206">
          <mxGeometry x="150" width="60" height="39" as="geometry">
            <mxRectangle width="60" height="39" as="alternateBounds" />
          </mxGeometry>
        </mxCell>
        <mxCell id="Lo_Y75DreQVUA2kq9Nu9-231" value="CUSTOMER_ADDRESS" style="shape=table;startSize=30;container=1;collapsible=0;childLayout=tableLayout;" vertex="1" parent="1">
          <mxGeometry x="-30" y="760" width="230" height="230" as="geometry" />
        </mxCell>
        <mxCell id="Lo_Y75DreQVUA2kq9Nu9-232" value="" style="shape=tableRow;horizontal=0;startSize=0;swimlaneHead=0;swimlaneBody=0;strokeColor=inherit;top=0;left=0;bottom=0;right=0;collapsible=0;dropTarget=0;fillColor=none;points=[[0,0.5],[1,0.5]];portConstraint=eastwest;" vertex="1" parent="Lo_Y75DreQVUA2kq9Nu9-231">
          <mxGeometry y="30" width="230" height="40" as="geometry" />
        </mxCell>
        <mxCell id="Lo_Y75DreQVUA2kq9Nu9-233" value="int" style="shape=partialRectangle;html=1;whiteSpace=wrap;connectable=0;strokeColor=inherit;overflow=hidden;fillColor=none;top=0;left=0;bottom=0;right=0;pointerEvents=1;" vertex="1" parent="Lo_Y75DreQVUA2kq9Nu9-232">
          <mxGeometry width="60" height="40" as="geometry">
            <mxRectangle width="60" height="40" as="alternateBounds" />
          </mxGeometry>
        </mxCell>
        <mxCell id="Lo_Y75DreQVUA2kq9Nu9-234" value="customer_address_id" style="shape=partialRectangle;html=1;whiteSpace=wrap;connectable=0;strokeColor=inherit;overflow=hidden;fillColor=none;top=0;left=0;bottom=0;right=0;pointerEvents=1;" vertex="1" parent="Lo_Y75DreQVUA2kq9Nu9-232">
          <mxGeometry x="60" width="130" height="40" as="geometry">
            <mxRectangle width="130" height="40" as="alternateBounds" />
          </mxGeometry>
        </mxCell>
        <mxCell id="Lo_Y75DreQVUA2kq9Nu9-235" value="PK" style="shape=partialRectangle;html=1;whiteSpace=wrap;connectable=0;strokeColor=inherit;overflow=hidden;fillColor=none;top=0;left=0;bottom=0;right=0;pointerEvents=1;" vertex="1" parent="Lo_Y75DreQVUA2kq9Nu9-232">
          <mxGeometry x="190" width="40" height="40" as="geometry">
            <mxRectangle width="40" height="40" as="alternateBounds" />
          </mxGeometry>
        </mxCell>
        <mxCell id="Lo_Y75DreQVUA2kq9Nu9-236" value="" style="shape=tableRow;horizontal=0;startSize=0;swimlaneHead=0;swimlaneBody=0;strokeColor=inherit;top=0;left=0;bottom=0;right=0;collapsible=0;dropTarget=0;fillColor=none;points=[[0,0.5],[1,0.5]];portConstraint=eastwest;" vertex="1" parent="Lo_Y75DreQVUA2kq9Nu9-231">
          <mxGeometry y="70" width="230" height="40" as="geometry" />
        </mxCell>
        <mxCell id="Lo_Y75DreQVUA2kq9Nu9-237" value="int" style="shape=partialRectangle;html=1;whiteSpace=wrap;connectable=0;strokeColor=inherit;overflow=hidden;fillColor=none;top=0;left=0;bottom=0;right=0;pointerEvents=1;" vertex="1" parent="Lo_Y75DreQVUA2kq9Nu9-236">
          <mxGeometry width="60" height="40" as="geometry">
            <mxRectangle width="60" height="40" as="alternateBounds" />
          </mxGeometry>
        </mxCell>
        <mxCell id="Lo_Y75DreQVUA2kq9Nu9-238" value="customer_id&amp;nbsp;" style="shape=partialRectangle;html=1;whiteSpace=wrap;connectable=0;strokeColor=inherit;overflow=hidden;fillColor=none;top=0;left=0;bottom=0;right=0;pointerEvents=1;" vertex="1" parent="Lo_Y75DreQVUA2kq9Nu9-236">
          <mxGeometry x="60" width="130" height="40" as="geometry">
            <mxRectangle width="130" height="40" as="alternateBounds" />
          </mxGeometry>
        </mxCell>
        <mxCell id="Lo_Y75DreQVUA2kq9Nu9-239" value="FK" style="shape=partialRectangle;html=1;whiteSpace=wrap;connectable=0;strokeColor=inherit;overflow=hidden;fillColor=none;top=0;left=0;bottom=0;right=0;pointerEvents=1;" vertex="1" parent="Lo_Y75DreQVUA2kq9Nu9-236">
          <mxGeometry x="190" width="40" height="40" as="geometry">
            <mxRectangle width="40" height="40" as="alternateBounds" />
          </mxGeometry>
        </mxCell>
        <mxCell id="Lo_Y75DreQVUA2kq9Nu9-240" value="" style="shape=tableRow;horizontal=0;startSize=0;swimlaneHead=0;swimlaneBody=0;strokeColor=inherit;top=0;left=0;bottom=0;right=0;collapsible=0;dropTarget=0;fillColor=none;points=[[0,0.5],[1,0.5]];portConstraint=eastwest;" vertex="1" parent="Lo_Y75DreQVUA2kq9Nu9-231">
          <mxGeometry y="110" width="230" height="40" as="geometry" />
        </mxCell>
        <mxCell id="Lo_Y75DreQVUA2kq9Nu9-241" value="int" style="shape=partialRectangle;html=1;whiteSpace=wrap;connectable=0;strokeColor=inherit;overflow=hidden;fillColor=none;top=0;left=0;bottom=0;right=0;pointerEvents=1;" vertex="1" parent="Lo_Y75DreQVUA2kq9Nu9-240">
          <mxGeometry width="60" height="40" as="geometry">
            <mxRectangle width="60" height="40" as="alternateBounds" />
          </mxGeometry>
        </mxCell>
        <mxCell id="Lo_Y75DreQVUA2kq9Nu9-242" value="address_id" style="shape=partialRectangle;html=1;whiteSpace=wrap;connectable=0;strokeColor=inherit;overflow=hidden;fillColor=none;top=0;left=0;bottom=0;right=0;pointerEvents=1;" vertex="1" parent="Lo_Y75DreQVUA2kq9Nu9-240">
          <mxGeometry x="60" width="130" height="40" as="geometry">
            <mxRectangle width="130" height="40" as="alternateBounds" />
          </mxGeometry>
        </mxCell>
        <mxCell id="Lo_Y75DreQVUA2kq9Nu9-243" value="" style="shape=partialRectangle;html=1;whiteSpace=wrap;connectable=0;strokeColor=inherit;overflow=hidden;fillColor=none;top=0;left=0;bottom=0;right=0;pointerEvents=1;" vertex="1" parent="Lo_Y75DreQVUA2kq9Nu9-240">
          <mxGeometry x="190" width="40" height="40" as="geometry">
            <mxRectangle width="40" height="40" as="alternateBounds" />
          </mxGeometry>
        </mxCell>
        <mxCell id="Lo_Y75DreQVUA2kq9Nu9-244" value="" style="shape=tableRow;horizontal=0;startSize=0;swimlaneHead=0;swimlaneBody=0;strokeColor=inherit;top=0;left=0;bottom=0;right=0;collapsible=0;dropTarget=0;fillColor=none;points=[[0,0.5],[1,0.5]];portConstraint=eastwest;" vertex="1" parent="Lo_Y75DreQVUA2kq9Nu9-231">
          <mxGeometry y="150" width="230" height="40" as="geometry" />
        </mxCell>
        <mxCell id="Lo_Y75DreQVUA2kq9Nu9-245" value="int" style="shape=partialRectangle;html=1;whiteSpace=wrap;connectable=0;strokeColor=inherit;overflow=hidden;fillColor=none;top=0;left=0;bottom=0;right=0;pointerEvents=1;" vertex="1" parent="Lo_Y75DreQVUA2kq9Nu9-244">
          <mxGeometry width="60" height="40" as="geometry">
            <mxRectangle width="60" height="40" as="alternateBounds" />
          </mxGeometry>
        </mxCell>
        <mxCell id="Lo_Y75DreQVUA2kq9Nu9-246" value="status_id" style="shape=partialRectangle;html=1;whiteSpace=wrap;connectable=0;strokeColor=inherit;overflow=hidden;fillColor=none;top=0;left=0;bottom=0;right=0;pointerEvents=1;" vertex="1" parent="Lo_Y75DreQVUA2kq9Nu9-244">
          <mxGeometry x="60" width="130" height="40" as="geometry">
            <mxRectangle width="130" height="40" as="alternateBounds" />
          </mxGeometry>
        </mxCell>
        <mxCell id="Lo_Y75DreQVUA2kq9Nu9-247" value="" style="shape=partialRectangle;html=1;whiteSpace=wrap;connectable=0;strokeColor=inherit;overflow=hidden;fillColor=none;top=0;left=0;bottom=0;right=0;pointerEvents=1;" vertex="1" parent="Lo_Y75DreQVUA2kq9Nu9-244">
          <mxGeometry x="190" width="40" height="40" as="geometry">
            <mxRectangle width="40" height="40" as="alternateBounds" />
          </mxGeometry>
        </mxCell>
        <mxCell id="Lo_Y75DreQVUA2kq9Nu9-248" value="" style="shape=tableRow;horizontal=0;startSize=0;swimlaneHead=0;swimlaneBody=0;strokeColor=inherit;top=0;left=0;bottom=0;right=0;collapsible=0;dropTarget=0;fillColor=none;points=[[0,0.5],[1,0.5]];portConstraint=eastwest;" vertex="1" parent="Lo_Y75DreQVUA2kq9Nu9-231">
          <mxGeometry y="190" width="230" height="40" as="geometry" />
        </mxCell>
        <mxCell id="Lo_Y75DreQVUA2kq9Nu9-249" value="timestamp" style="shape=partialRectangle;html=1;whiteSpace=wrap;connectable=0;strokeColor=inherit;overflow=hidden;fillColor=none;top=0;left=0;bottom=0;right=0;pointerEvents=1;" vertex="1" parent="Lo_Y75DreQVUA2kq9Nu9-248">
          <mxGeometry width="60" height="40" as="geometry">
            <mxRectangle width="60" height="40" as="alternateBounds" />
          </mxGeometry>
        </mxCell>
        <mxCell id="Lo_Y75DreQVUA2kq9Nu9-250" value="added_on" style="shape=partialRectangle;html=1;whiteSpace=wrap;connectable=0;strokeColor=inherit;overflow=hidden;fillColor=none;top=0;left=0;bottom=0;right=0;pointerEvents=1;" vertex="1" parent="Lo_Y75DreQVUA2kq9Nu9-248">
          <mxGeometry x="60" width="130" height="40" as="geometry">
            <mxRectangle width="130" height="40" as="alternateBounds" />
          </mxGeometry>
        </mxCell>
        <mxCell id="Lo_Y75DreQVUA2kq9Nu9-251" value="" style="shape=partialRectangle;html=1;whiteSpace=wrap;connectable=0;strokeColor=inherit;overflow=hidden;fillColor=none;top=0;left=0;bottom=0;right=0;pointerEvents=1;" vertex="1" parent="Lo_Y75DreQVUA2kq9Nu9-248">
          <mxGeometry x="190" width="40" height="40" as="geometry">
            <mxRectangle width="40" height="40" as="alternateBounds" />
          </mxGeometry>
        </mxCell>
        <mxCell id="Lo_Y75DreQVUA2kq9Nu9-256" value="CUSTORMER_ORDER" style="shape=table;startSize=30;container=1;collapsible=0;childLayout=tableLayout;" vertex="1" parent="1">
          <mxGeometry x="350" y="690" width="230" height="280" as="geometry" />
        </mxCell>
        <mxCell id="Lo_Y75DreQVUA2kq9Nu9-257" value="" style="shape=tableRow;horizontal=0;startSize=0;swimlaneHead=0;swimlaneBody=0;strokeColor=inherit;top=0;left=0;bottom=0;right=0;collapsible=0;dropTarget=0;fillColor=none;points=[[0,0.5],[1,0.5]];portConstraint=eastwest;" vertex="1" parent="Lo_Y75DreQVUA2kq9Nu9-256">
          <mxGeometry y="30" width="230" height="42" as="geometry" />
        </mxCell>
        <mxCell id="Lo_Y75DreQVUA2kq9Nu9-258" value="int" style="shape=partialRectangle;html=1;whiteSpace=wrap;connectable=0;strokeColor=inherit;overflow=hidden;fillColor=none;top=0;left=0;bottom=0;right=0;pointerEvents=1;" vertex="1" parent="Lo_Y75DreQVUA2kq9Nu9-257">
          <mxGeometry width="66" height="42" as="geometry">
            <mxRectangle width="66" height="42" as="alternateBounds" />
          </mxGeometry>
        </mxCell>
        <mxCell id="Lo_Y75DreQVUA2kq9Nu9-259" value="order_id" style="shape=partialRectangle;html=1;whiteSpace=wrap;connectable=0;strokeColor=inherit;overflow=hidden;fillColor=none;top=0;left=0;bottom=0;right=0;pointerEvents=1;" vertex="1" parent="Lo_Y75DreQVUA2kq9Nu9-257">
          <mxGeometry x="66" width="120" height="42" as="geometry">
            <mxRectangle width="120" height="42" as="alternateBounds" />
          </mxGeometry>
        </mxCell>
        <mxCell id="Lo_Y75DreQVUA2kq9Nu9-260" value="PK" style="shape=partialRectangle;html=1;whiteSpace=wrap;connectable=0;strokeColor=inherit;overflow=hidden;fillColor=none;top=0;left=0;bottom=0;right=0;pointerEvents=1;" vertex="1" parent="Lo_Y75DreQVUA2kq9Nu9-257">
          <mxGeometry x="186" width="44" height="42" as="geometry">
            <mxRectangle width="44" height="42" as="alternateBounds" />
          </mxGeometry>
        </mxCell>
        <mxCell id="Lo_Y75DreQVUA2kq9Nu9-261" value="" style="shape=tableRow;horizontal=0;startSize=0;swimlaneHead=0;swimlaneBody=0;strokeColor=inherit;top=0;left=0;bottom=0;right=0;collapsible=0;dropTarget=0;fillColor=none;points=[[0,0.5],[1,0.5]];portConstraint=eastwest;" vertex="1" parent="Lo_Y75DreQVUA2kq9Nu9-256">
          <mxGeometry y="72" width="230" height="41" as="geometry" />
        </mxCell>
        <mxCell id="Lo_Y75DreQVUA2kq9Nu9-262" value="int" style="shape=partialRectangle;html=1;whiteSpace=wrap;connectable=0;strokeColor=inherit;overflow=hidden;fillColor=none;top=0;left=0;bottom=0;right=0;pointerEvents=1;" vertex="1" parent="Lo_Y75DreQVUA2kq9Nu9-261">
          <mxGeometry width="66" height="41" as="geometry">
            <mxRectangle width="66" height="41" as="alternateBounds" />
          </mxGeometry>
        </mxCell>
        <mxCell id="Lo_Y75DreQVUA2kq9Nu9-263" value="custormer_id" style="shape=partialRectangle;html=1;whiteSpace=wrap;connectable=0;strokeColor=inherit;overflow=hidden;fillColor=none;top=0;left=0;bottom=0;right=0;pointerEvents=1;" vertex="1" parent="Lo_Y75DreQVUA2kq9Nu9-261">
          <mxGeometry x="66" width="120" height="41" as="geometry">
            <mxRectangle width="120" height="41" as="alternateBounds" />
          </mxGeometry>
        </mxCell>
        <mxCell id="Lo_Y75DreQVUA2kq9Nu9-264" value="FK" style="shape=partialRectangle;html=1;whiteSpace=wrap;connectable=0;strokeColor=inherit;overflow=hidden;fillColor=none;top=0;left=0;bottom=0;right=0;pointerEvents=1;" vertex="1" parent="Lo_Y75DreQVUA2kq9Nu9-261">
          <mxGeometry x="186" width="44" height="41" as="geometry">
            <mxRectangle width="44" height="41" as="alternateBounds" />
          </mxGeometry>
        </mxCell>
        <mxCell id="Lo_Y75DreQVUA2kq9Nu9-265" value="" style="shape=tableRow;horizontal=0;startSize=0;swimlaneHead=0;swimlaneBody=0;strokeColor=inherit;top=0;left=0;bottom=0;right=0;collapsible=0;dropTarget=0;fillColor=none;points=[[0,0.5],[1,0.5]];portConstraint=eastwest;" vertex="1" parent="Lo_Y75DreQVUA2kq9Nu9-256">
          <mxGeometry y="113" width="230" height="42" as="geometry" />
        </mxCell>
        <mxCell id="Lo_Y75DreQVUA2kq9Nu9-266" value="timestamp" style="shape=partialRectangle;html=1;whiteSpace=wrap;connectable=0;strokeColor=inherit;overflow=hidden;fillColor=none;top=0;left=0;bottom=0;right=0;pointerEvents=1;" vertex="1" parent="Lo_Y75DreQVUA2kq9Nu9-265">
          <mxGeometry width="66" height="42" as="geometry">
            <mxRectangle width="66" height="42" as="alternateBounds" />
          </mxGeometry>
        </mxCell>
        <mxCell id="Lo_Y75DreQVUA2kq9Nu9-267" value="order_date" style="shape=partialRectangle;html=1;whiteSpace=wrap;connectable=0;strokeColor=inherit;overflow=hidden;fillColor=none;top=0;left=0;bottom=0;right=0;pointerEvents=1;" vertex="1" parent="Lo_Y75DreQVUA2kq9Nu9-265">
          <mxGeometry x="66" width="120" height="42" as="geometry">
            <mxRectangle width="120" height="42" as="alternateBounds" />
          </mxGeometry>
        </mxCell>
        <mxCell id="Lo_Y75DreQVUA2kq9Nu9-268" value="" style="shape=partialRectangle;html=1;whiteSpace=wrap;connectable=0;strokeColor=inherit;overflow=hidden;fillColor=none;top=0;left=0;bottom=0;right=0;pointerEvents=1;" vertex="1" parent="Lo_Y75DreQVUA2kq9Nu9-265">
          <mxGeometry x="186" width="44" height="42" as="geometry">
            <mxRectangle width="44" height="42" as="alternateBounds" />
          </mxGeometry>
        </mxCell>
        <mxCell id="Lo_Y75DreQVUA2kq9Nu9-269" value="" style="shape=tableRow;horizontal=0;startSize=0;swimlaneHead=0;swimlaneBody=0;strokeColor=inherit;top=0;left=0;bottom=0;right=0;collapsible=0;dropTarget=0;fillColor=none;points=[[0,0.5],[1,0.5]];portConstraint=eastwest;" vertex="1" parent="Lo_Y75DreQVUA2kq9Nu9-256">
          <mxGeometry y="155" width="230" height="42" as="geometry" />
        </mxCell>
        <mxCell id="Lo_Y75DreQVUA2kq9Nu9-270" value="int&amp;nbsp;" style="shape=partialRectangle;html=1;whiteSpace=wrap;connectable=0;strokeColor=inherit;overflow=hidden;fillColor=none;top=0;left=0;bottom=0;right=0;pointerEvents=1;" vertex="1" parent="Lo_Y75DreQVUA2kq9Nu9-269">
          <mxGeometry width="66" height="42" as="geometry">
            <mxRectangle width="66" height="42" as="alternateBounds" />
          </mxGeometry>
        </mxCell>
        <mxCell id="Lo_Y75DreQVUA2kq9Nu9-271" value="shipping_method_id" style="shape=partialRectangle;html=1;whiteSpace=wrap;connectable=0;strokeColor=inherit;overflow=hidden;fillColor=none;top=0;left=0;bottom=0;right=0;pointerEvents=1;" vertex="1" parent="Lo_Y75DreQVUA2kq9Nu9-269">
          <mxGeometry x="66" width="120" height="42" as="geometry">
            <mxRectangle width="120" height="42" as="alternateBounds" />
          </mxGeometry>
        </mxCell>
        <mxCell id="Lo_Y75DreQVUA2kq9Nu9-272" value="FK" style="shape=partialRectangle;html=1;whiteSpace=wrap;connectable=0;strokeColor=inherit;overflow=hidden;fillColor=none;top=0;left=0;bottom=0;right=0;pointerEvents=1;" vertex="1" parent="Lo_Y75DreQVUA2kq9Nu9-269">
          <mxGeometry x="186" width="44" height="42" as="geometry">
            <mxRectangle width="44" height="42" as="alternateBounds" />
          </mxGeometry>
        </mxCell>
        <mxCell id="Lo_Y75DreQVUA2kq9Nu9-273" value="" style="shape=tableRow;horizontal=0;startSize=0;swimlaneHead=0;swimlaneBody=0;strokeColor=inherit;top=0;left=0;bottom=0;right=0;collapsible=0;dropTarget=0;fillColor=none;points=[[0,0.5],[1,0.5]];portConstraint=eastwest;" vertex="1" parent="Lo_Y75DreQVUA2kq9Nu9-256">
          <mxGeometry y="197" width="230" height="41" as="geometry" />
        </mxCell>
        <mxCell id="Lo_Y75DreQVUA2kq9Nu9-274" value="int" style="shape=partialRectangle;html=1;whiteSpace=wrap;connectable=0;strokeColor=inherit;overflow=hidden;fillColor=none;top=0;left=0;bottom=0;right=0;pointerEvents=1;" vertex="1" parent="Lo_Y75DreQVUA2kq9Nu9-273">
          <mxGeometry width="66" height="41" as="geometry">
            <mxRectangle width="66" height="41" as="alternateBounds" />
          </mxGeometry>
        </mxCell>
        <mxCell id="Lo_Y75DreQVUA2kq9Nu9-275" value="order_status_id&amp;nbsp;" style="shape=partialRectangle;html=1;whiteSpace=wrap;connectable=0;strokeColor=inherit;overflow=hidden;fillColor=none;top=0;left=0;bottom=0;right=0;pointerEvents=1;" vertex="1" parent="Lo_Y75DreQVUA2kq9Nu9-273">
          <mxGeometry x="66" width="120" height="41" as="geometry">
            <mxRectangle width="120" height="41" as="alternateBounds" />
          </mxGeometry>
        </mxCell>
        <mxCell id="Lo_Y75DreQVUA2kq9Nu9-276" value="FK" style="shape=partialRectangle;html=1;whiteSpace=wrap;connectable=0;strokeColor=inherit;overflow=hidden;fillColor=none;top=0;left=0;bottom=0;right=0;pointerEvents=1;" vertex="1" parent="Lo_Y75DreQVUA2kq9Nu9-273">
          <mxGeometry x="186" width="44" height="41" as="geometry">
            <mxRectangle width="44" height="41" as="alternateBounds" />
          </mxGeometry>
        </mxCell>
        <mxCell id="Lo_Y75DreQVUA2kq9Nu9-277" value="" style="shape=tableRow;horizontal=0;startSize=0;swimlaneHead=0;swimlaneBody=0;strokeColor=inherit;top=0;left=0;bottom=0;right=0;collapsible=0;dropTarget=0;fillColor=none;points=[[0,0.5],[1,0.5]];portConstraint=eastwest;" vertex="1" parent="Lo_Y75DreQVUA2kq9Nu9-256">
          <mxGeometry y="238" width="230" height="42" as="geometry" />
        </mxCell>
        <mxCell id="Lo_Y75DreQVUA2kq9Nu9-278" value="decimal" style="shape=partialRectangle;html=1;whiteSpace=wrap;connectable=0;strokeColor=inherit;overflow=hidden;fillColor=none;top=0;left=0;bottom=0;right=0;pointerEvents=1;" vertex="1" parent="Lo_Y75DreQVUA2kq9Nu9-277">
          <mxGeometry width="66" height="42" as="geometry">
            <mxRectangle width="66" height="42" as="alternateBounds" />
          </mxGeometry>
        </mxCell>
        <mxCell id="Lo_Y75DreQVUA2kq9Nu9-279" value="total_amount" style="shape=partialRectangle;html=1;whiteSpace=wrap;connectable=0;strokeColor=inherit;overflow=hidden;fillColor=none;top=0;left=0;bottom=0;right=0;pointerEvents=1;" vertex="1" parent="Lo_Y75DreQVUA2kq9Nu9-277">
          <mxGeometry x="66" width="120" height="42" as="geometry">
            <mxRectangle width="120" height="42" as="alternateBounds" />
          </mxGeometry>
        </mxCell>
        <mxCell id="Lo_Y75DreQVUA2kq9Nu9-280" value="" style="shape=partialRectangle;html=1;whiteSpace=wrap;connectable=0;strokeColor=inherit;overflow=hidden;fillColor=none;top=0;left=0;bottom=0;right=0;pointerEvents=1;" vertex="1" parent="Lo_Y75DreQVUA2kq9Nu9-277">
          <mxGeometry x="186" width="44" height="42" as="geometry">
            <mxRectangle width="44" height="42" as="alternateBounds" />
          </mxGeometry>
        </mxCell>
        <mxCell id="Lo_Y75DreQVUA2kq9Nu9-356" style="edgeStyle=orthogonalEdgeStyle;curved=1;rounded=0;orthogonalLoop=1;jettySize=auto;html=1;exitX=1;exitY=0;exitDx=0;exitDy=0;" edge="1" parent="1" source="Lo_Y75DreQVUA2kq9Nu9-281">
          <mxGeometry relative="1" as="geometry">
            <mxPoint x="-340" y="1000" as="targetPoint" />
          </mxGeometry>
        </mxCell>
        <mxCell id="Lo_Y75DreQVUA2kq9Nu9-281" value="BOOK_AUTHOR" style="shape=table;startSize=30;container=1;collapsible=0;childLayout=tableLayout;" vertex="1" parent="1">
          <mxGeometry x="-600" y="1280" width="180" height="110" as="geometry" />
        </mxCell>
        <mxCell id="Lo_Y75DreQVUA2kq9Nu9-282" value="" style="shape=tableRow;horizontal=0;startSize=0;swimlaneHead=0;swimlaneBody=0;strokeColor=inherit;top=0;left=0;bottom=0;right=0;collapsible=0;dropTarget=0;fillColor=none;points=[[0,0.5],[1,0.5]];portConstraint=eastwest;" vertex="1" parent="Lo_Y75DreQVUA2kq9Nu9-281">
          <mxGeometry y="30" width="180" height="40" as="geometry" />
        </mxCell>
        <mxCell id="Lo_Y75DreQVUA2kq9Nu9-283" value="int" style="shape=partialRectangle;html=1;whiteSpace=wrap;connectable=0;strokeColor=inherit;overflow=hidden;fillColor=none;top=0;left=0;bottom=0;right=0;pointerEvents=1;" vertex="1" parent="Lo_Y75DreQVUA2kq9Nu9-282">
          <mxGeometry width="60" height="40" as="geometry">
            <mxRectangle width="60" height="40" as="alternateBounds" />
          </mxGeometry>
        </mxCell>
        <mxCell id="Lo_Y75DreQVUA2kq9Nu9-284" value="book_id" style="shape=partialRectangle;html=1;whiteSpace=wrap;connectable=0;strokeColor=inherit;overflow=hidden;fillColor=none;top=0;left=0;bottom=0;right=0;pointerEvents=1;" vertex="1" parent="Lo_Y75DreQVUA2kq9Nu9-282">
          <mxGeometry x="60" width="60" height="40" as="geometry">
            <mxRectangle width="60" height="40" as="alternateBounds" />
          </mxGeometry>
        </mxCell>
        <mxCell id="Lo_Y75DreQVUA2kq9Nu9-285" value="FK" style="shape=partialRectangle;html=1;whiteSpace=wrap;connectable=0;strokeColor=inherit;overflow=hidden;fillColor=none;top=0;left=0;bottom=0;right=0;pointerEvents=1;" vertex="1" parent="Lo_Y75DreQVUA2kq9Nu9-282">
          <mxGeometry x="120" width="60" height="40" as="geometry">
            <mxRectangle width="60" height="40" as="alternateBounds" />
          </mxGeometry>
        </mxCell>
        <mxCell id="Lo_Y75DreQVUA2kq9Nu9-286" value="" style="shape=tableRow;horizontal=0;startSize=0;swimlaneHead=0;swimlaneBody=0;strokeColor=inherit;top=0;left=0;bottom=0;right=0;collapsible=0;dropTarget=0;fillColor=none;points=[[0,0.5],[1,0.5]];portConstraint=eastwest;" vertex="1" parent="Lo_Y75DreQVUA2kq9Nu9-281">
          <mxGeometry y="70" width="180" height="40" as="geometry" />
        </mxCell>
        <mxCell id="Lo_Y75DreQVUA2kq9Nu9-287" value="int" style="shape=partialRectangle;html=1;whiteSpace=wrap;connectable=0;strokeColor=inherit;overflow=hidden;fillColor=none;top=0;left=0;bottom=0;right=0;pointerEvents=1;" vertex="1" parent="Lo_Y75DreQVUA2kq9Nu9-286">
          <mxGeometry width="60" height="40" as="geometry">
            <mxRectangle width="60" height="40" as="alternateBounds" />
          </mxGeometry>
        </mxCell>
        <mxCell id="Lo_Y75DreQVUA2kq9Nu9-288" value="author_id" style="shape=partialRectangle;html=1;whiteSpace=wrap;connectable=0;strokeColor=inherit;overflow=hidden;fillColor=none;top=0;left=0;bottom=0;right=0;pointerEvents=1;" vertex="1" parent="Lo_Y75DreQVUA2kq9Nu9-286">
          <mxGeometry x="60" width="60" height="40" as="geometry">
            <mxRectangle width="60" height="40" as="alternateBounds" />
          </mxGeometry>
        </mxCell>
        <mxCell id="Lo_Y75DreQVUA2kq9Nu9-289" value="FK" style="shape=partialRectangle;html=1;whiteSpace=wrap;connectable=0;strokeColor=inherit;overflow=hidden;fillColor=none;top=0;left=0;bottom=0;right=0;pointerEvents=1;" vertex="1" parent="Lo_Y75DreQVUA2kq9Nu9-286">
          <mxGeometry x="120" width="60" height="40" as="geometry">
            <mxRectangle width="60" height="40" as="alternateBounds" />
          </mxGeometry>
        </mxCell>
        <mxCell id="Lo_Y75DreQVUA2kq9Nu9-290" value="ORDER_LINE" style="shape=table;startSize=30;container=1;collapsible=0;childLayout=tableLayout;" vertex="1" parent="1">
          <mxGeometry x="230" y="1110" width="210" height="230" as="geometry" />
        </mxCell>
        <mxCell id="Lo_Y75DreQVUA2kq9Nu9-291" value="" style="shape=tableRow;horizontal=0;startSize=0;swimlaneHead=0;swimlaneBody=0;strokeColor=inherit;top=0;left=0;bottom=0;right=0;collapsible=0;dropTarget=0;fillColor=none;points=[[0,0.5],[1,0.5]];portConstraint=eastwest;" vertex="1" parent="Lo_Y75DreQVUA2kq9Nu9-290">
          <mxGeometry y="30" width="210" height="40" as="geometry" />
        </mxCell>
        <mxCell id="Lo_Y75DreQVUA2kq9Nu9-292" value="int" style="shape=partialRectangle;html=1;whiteSpace=wrap;connectable=0;strokeColor=inherit;overflow=hidden;fillColor=none;top=0;left=0;bottom=0;right=0;pointerEvents=1;" vertex="1" parent="Lo_Y75DreQVUA2kq9Nu9-291">
          <mxGeometry width="60" height="40" as="geometry">
            <mxRectangle width="60" height="40" as="alternateBounds" />
          </mxGeometry>
        </mxCell>
        <mxCell id="Lo_Y75DreQVUA2kq9Nu9-293" value="order_line_id" style="shape=partialRectangle;html=1;whiteSpace=wrap;connectable=0;strokeColor=inherit;overflow=hidden;fillColor=none;top=0;left=0;bottom=0;right=0;pointerEvents=1;" vertex="1" parent="Lo_Y75DreQVUA2kq9Nu9-291">
          <mxGeometry x="60" width="100" height="40" as="geometry">
            <mxRectangle width="100" height="40" as="alternateBounds" />
          </mxGeometry>
        </mxCell>
        <mxCell id="Lo_Y75DreQVUA2kq9Nu9-294" value="PK" style="shape=partialRectangle;html=1;whiteSpace=wrap;connectable=0;strokeColor=inherit;overflow=hidden;fillColor=none;top=0;left=0;bottom=0;right=0;pointerEvents=1;" vertex="1" parent="Lo_Y75DreQVUA2kq9Nu9-291">
          <mxGeometry x="160" width="50" height="40" as="geometry">
            <mxRectangle width="50" height="40" as="alternateBounds" />
          </mxGeometry>
        </mxCell>
        <mxCell id="Lo_Y75DreQVUA2kq9Nu9-295" value="" style="shape=tableRow;horizontal=0;startSize=0;swimlaneHead=0;swimlaneBody=0;strokeColor=inherit;top=0;left=0;bottom=0;right=0;collapsible=0;dropTarget=0;fillColor=none;points=[[0,0.5],[1,0.5]];portConstraint=eastwest;" vertex="1" parent="Lo_Y75DreQVUA2kq9Nu9-290">
          <mxGeometry y="70" width="210" height="40" as="geometry" />
        </mxCell>
        <mxCell id="Lo_Y75DreQVUA2kq9Nu9-296" value="int" style="shape=partialRectangle;html=1;whiteSpace=wrap;connectable=0;strokeColor=inherit;overflow=hidden;fillColor=none;top=0;left=0;bottom=0;right=0;pointerEvents=1;" vertex="1" parent="Lo_Y75DreQVUA2kq9Nu9-295">
          <mxGeometry width="60" height="40" as="geometry">
            <mxRectangle width="60" height="40" as="alternateBounds" />
          </mxGeometry>
        </mxCell>
        <mxCell id="Lo_Y75DreQVUA2kq9Nu9-297" value="order_id" style="shape=partialRectangle;html=1;whiteSpace=wrap;connectable=0;strokeColor=inherit;overflow=hidden;fillColor=none;top=0;left=0;bottom=0;right=0;pointerEvents=1;" vertex="1" parent="Lo_Y75DreQVUA2kq9Nu9-295">
          <mxGeometry x="60" width="100" height="40" as="geometry">
            <mxRectangle width="100" height="40" as="alternateBounds" />
          </mxGeometry>
        </mxCell>
        <mxCell id="Lo_Y75DreQVUA2kq9Nu9-298" value="FK" style="shape=partialRectangle;html=1;whiteSpace=wrap;connectable=0;strokeColor=inherit;overflow=hidden;fillColor=none;top=0;left=0;bottom=0;right=0;pointerEvents=1;" vertex="1" parent="Lo_Y75DreQVUA2kq9Nu9-295">
          <mxGeometry x="160" width="50" height="40" as="geometry">
            <mxRectangle width="50" height="40" as="alternateBounds" />
          </mxGeometry>
        </mxCell>
        <mxCell id="Lo_Y75DreQVUA2kq9Nu9-299" value="" style="shape=tableRow;horizontal=0;startSize=0;swimlaneHead=0;swimlaneBody=0;strokeColor=inherit;top=0;left=0;bottom=0;right=0;collapsible=0;dropTarget=0;fillColor=none;points=[[0,0.5],[1,0.5]];portConstraint=eastwest;" vertex="1" parent="Lo_Y75DreQVUA2kq9Nu9-290">
          <mxGeometry y="110" width="210" height="40" as="geometry" />
        </mxCell>
        <mxCell id="Lo_Y75DreQVUA2kq9Nu9-300" value="int" style="shape=partialRectangle;html=1;whiteSpace=wrap;connectable=0;strokeColor=inherit;overflow=hidden;fillColor=none;top=0;left=0;bottom=0;right=0;pointerEvents=1;" vertex="1" parent="Lo_Y75DreQVUA2kq9Nu9-299">
          <mxGeometry width="60" height="40" as="geometry">
            <mxRectangle width="60" height="40" as="alternateBounds" />
          </mxGeometry>
        </mxCell>
        <mxCell id="Lo_Y75DreQVUA2kq9Nu9-301" value="book_id" style="shape=partialRectangle;html=1;whiteSpace=wrap;connectable=0;strokeColor=inherit;overflow=hidden;fillColor=none;top=0;left=0;bottom=0;right=0;pointerEvents=1;" vertex="1" parent="Lo_Y75DreQVUA2kq9Nu9-299">
          <mxGeometry x="60" width="100" height="40" as="geometry">
            <mxRectangle width="100" height="40" as="alternateBounds" />
          </mxGeometry>
        </mxCell>
        <mxCell id="Lo_Y75DreQVUA2kq9Nu9-302" value="FK" style="shape=partialRectangle;html=1;whiteSpace=wrap;connectable=0;strokeColor=inherit;overflow=hidden;fillColor=none;top=0;left=0;bottom=0;right=0;pointerEvents=1;" vertex="1" parent="Lo_Y75DreQVUA2kq9Nu9-299">
          <mxGeometry x="160" width="50" height="40" as="geometry">
            <mxRectangle width="50" height="40" as="alternateBounds" />
          </mxGeometry>
        </mxCell>
        <mxCell id="Lo_Y75DreQVUA2kq9Nu9-303" value="" style="shape=tableRow;horizontal=0;startSize=0;swimlaneHead=0;swimlaneBody=0;strokeColor=inherit;top=0;left=0;bottom=0;right=0;collapsible=0;dropTarget=0;fillColor=none;points=[[0,0.5],[1,0.5]];portConstraint=eastwest;" vertex="1" parent="Lo_Y75DreQVUA2kq9Nu9-290">
          <mxGeometry y="150" width="210" height="40" as="geometry" />
        </mxCell>
        <mxCell id="Lo_Y75DreQVUA2kq9Nu9-304" value="int" style="shape=partialRectangle;html=1;whiteSpace=wrap;connectable=0;strokeColor=inherit;overflow=hidden;fillColor=none;top=0;left=0;bottom=0;right=0;pointerEvents=1;" vertex="1" parent="Lo_Y75DreQVUA2kq9Nu9-303">
          <mxGeometry width="60" height="40" as="geometry">
            <mxRectangle width="60" height="40" as="alternateBounds" />
          </mxGeometry>
        </mxCell>
        <mxCell id="Lo_Y75DreQVUA2kq9Nu9-305" value="quantity" style="shape=partialRectangle;html=1;whiteSpace=wrap;connectable=0;strokeColor=inherit;overflow=hidden;fillColor=none;top=0;left=0;bottom=0;right=0;pointerEvents=1;" vertex="1" parent="Lo_Y75DreQVUA2kq9Nu9-303">
          <mxGeometry x="60" width="100" height="40" as="geometry">
            <mxRectangle width="100" height="40" as="alternateBounds" />
          </mxGeometry>
        </mxCell>
        <mxCell id="Lo_Y75DreQVUA2kq9Nu9-306" value="" style="shape=partialRectangle;html=1;whiteSpace=wrap;connectable=0;strokeColor=inherit;overflow=hidden;fillColor=none;top=0;left=0;bottom=0;right=0;pointerEvents=1;" vertex="1" parent="Lo_Y75DreQVUA2kq9Nu9-303">
          <mxGeometry x="160" width="50" height="40" as="geometry">
            <mxRectangle width="50" height="40" as="alternateBounds" />
          </mxGeometry>
        </mxCell>
        <mxCell id="Lo_Y75DreQVUA2kq9Nu9-307" value="" style="shape=tableRow;horizontal=0;startSize=0;swimlaneHead=0;swimlaneBody=0;strokeColor=inherit;top=0;left=0;bottom=0;right=0;collapsible=0;dropTarget=0;fillColor=none;points=[[0,0.5],[1,0.5]];portConstraint=eastwest;" vertex="1" parent="Lo_Y75DreQVUA2kq9Nu9-290">
          <mxGeometry y="190" width="210" height="40" as="geometry" />
        </mxCell>
        <mxCell id="Lo_Y75DreQVUA2kq9Nu9-308" value="decimal" style="shape=partialRectangle;html=1;whiteSpace=wrap;connectable=0;strokeColor=inherit;overflow=hidden;fillColor=none;top=0;left=0;bottom=0;right=0;pointerEvents=1;" vertex="1" parent="Lo_Y75DreQVUA2kq9Nu9-307">
          <mxGeometry width="60" height="40" as="geometry">
            <mxRectangle width="60" height="40" as="alternateBounds" />
          </mxGeometry>
        </mxCell>
        <mxCell id="Lo_Y75DreQVUA2kq9Nu9-309" value="unit_price" style="shape=partialRectangle;html=1;whiteSpace=wrap;connectable=0;strokeColor=inherit;overflow=hidden;fillColor=none;top=0;left=0;bottom=0;right=0;pointerEvents=1;" vertex="1" parent="Lo_Y75DreQVUA2kq9Nu9-307">
          <mxGeometry x="60" width="100" height="40" as="geometry">
            <mxRectangle width="100" height="40" as="alternateBounds" />
          </mxGeometry>
        </mxCell>
        <mxCell id="Lo_Y75DreQVUA2kq9Nu9-310" value="" style="shape=partialRectangle;html=1;whiteSpace=wrap;connectable=0;strokeColor=inherit;overflow=hidden;fillColor=none;top=0;left=0;bottom=0;right=0;pointerEvents=1;" vertex="1" parent="Lo_Y75DreQVUA2kq9Nu9-307">
          <mxGeometry x="160" width="50" height="40" as="geometry">
            <mxRectangle width="50" height="40" as="alternateBounds" />
          </mxGeometry>
        </mxCell>
        <mxCell id="Lo_Y75DreQVUA2kq9Nu9-311" value="ORDER_HISTORY" style="shape=table;startSize=40;container=1;collapsible=0;childLayout=tableLayout;" vertex="1" parent="1">
          <mxGeometry x="750" y="630" width="240" height="230" as="geometry" />
        </mxCell>
        <mxCell id="Lo_Y75DreQVUA2kq9Nu9-312" value="" style="shape=tableRow;horizontal=0;startSize=0;swimlaneHead=0;swimlaneBody=0;strokeColor=inherit;top=0;left=0;bottom=0;right=0;collapsible=0;dropTarget=0;fillColor=none;points=[[0,0.5],[1,0.5]];portConstraint=eastwest;" vertex="1" parent="Lo_Y75DreQVUA2kq9Nu9-311">
          <mxGeometry y="40" width="240" height="40" as="geometry" />
        </mxCell>
        <mxCell id="Lo_Y75DreQVUA2kq9Nu9-313" value="int" style="shape=partialRectangle;html=1;whiteSpace=wrap;connectable=0;strokeColor=inherit;overflow=hidden;fillColor=none;top=0;left=0;bottom=0;right=0;pointerEvents=1;" vertex="1" parent="Lo_Y75DreQVUA2kq9Nu9-312">
          <mxGeometry width="80" height="40" as="geometry">
            <mxRectangle width="80" height="40" as="alternateBounds" />
          </mxGeometry>
        </mxCell>
        <mxCell id="Lo_Y75DreQVUA2kq9Nu9-314" value="order_history_id" style="shape=partialRectangle;html=1;whiteSpace=wrap;connectable=0;strokeColor=inherit;overflow=hidden;fillColor=none;top=0;left=0;bottom=0;right=0;pointerEvents=1;" vertex="1" parent="Lo_Y75DreQVUA2kq9Nu9-312">
          <mxGeometry x="80" width="103" height="40" as="geometry">
            <mxRectangle width="103" height="40" as="alternateBounds" />
          </mxGeometry>
        </mxCell>
        <mxCell id="Lo_Y75DreQVUA2kq9Nu9-315" value="PK" style="shape=partialRectangle;html=1;whiteSpace=wrap;connectable=0;strokeColor=inherit;overflow=hidden;fillColor=none;top=0;left=0;bottom=0;right=0;pointerEvents=1;" vertex="1" parent="Lo_Y75DreQVUA2kq9Nu9-312">
          <mxGeometry x="183" width="57" height="40" as="geometry">
            <mxRectangle width="57" height="40" as="alternateBounds" />
          </mxGeometry>
        </mxCell>
        <mxCell id="Lo_Y75DreQVUA2kq9Nu9-316" value="" style="shape=tableRow;horizontal=0;startSize=0;swimlaneHead=0;swimlaneBody=0;strokeColor=inherit;top=0;left=0;bottom=0;right=0;collapsible=0;dropTarget=0;fillColor=none;points=[[0,0.5],[1,0.5]];portConstraint=eastwest;" vertex="1" parent="Lo_Y75DreQVUA2kq9Nu9-311">
          <mxGeometry y="80" width="240" height="31" as="geometry" />
        </mxCell>
        <mxCell id="Lo_Y75DreQVUA2kq9Nu9-317" value="int" style="shape=partialRectangle;html=1;whiteSpace=wrap;connectable=0;strokeColor=inherit;overflow=hidden;fillColor=none;top=0;left=0;bottom=0;right=0;pointerEvents=1;" vertex="1" parent="Lo_Y75DreQVUA2kq9Nu9-316">
          <mxGeometry width="80" height="31" as="geometry">
            <mxRectangle width="80" height="31" as="alternateBounds" />
          </mxGeometry>
        </mxCell>
        <mxCell id="Lo_Y75DreQVUA2kq9Nu9-318" value="order_id" style="shape=partialRectangle;html=1;whiteSpace=wrap;connectable=0;strokeColor=inherit;overflow=hidden;fillColor=none;top=0;left=0;bottom=0;right=0;pointerEvents=1;" vertex="1" parent="Lo_Y75DreQVUA2kq9Nu9-316">
          <mxGeometry x="80" width="103" height="31" as="geometry">
            <mxRectangle width="103" height="31" as="alternateBounds" />
          </mxGeometry>
        </mxCell>
        <mxCell id="Lo_Y75DreQVUA2kq9Nu9-319" value="FK" style="shape=partialRectangle;html=1;whiteSpace=wrap;connectable=0;strokeColor=inherit;overflow=hidden;fillColor=none;top=0;left=0;bottom=0;right=0;pointerEvents=1;" vertex="1" parent="Lo_Y75DreQVUA2kq9Nu9-316">
          <mxGeometry x="183" width="57" height="31" as="geometry">
            <mxRectangle width="57" height="31" as="alternateBounds" />
          </mxGeometry>
        </mxCell>
        <mxCell id="Lo_Y75DreQVUA2kq9Nu9-320" value="" style="shape=tableRow;horizontal=0;startSize=0;swimlaneHead=0;swimlaneBody=0;strokeColor=inherit;top=0;left=0;bottom=0;right=0;collapsible=0;dropTarget=0;fillColor=none;points=[[0,0.5],[1,0.5]];portConstraint=eastwest;" vertex="1" parent="Lo_Y75DreQVUA2kq9Nu9-311">
          <mxGeometry y="111" width="240" height="39" as="geometry" />
        </mxCell>
        <mxCell id="Lo_Y75DreQVUA2kq9Nu9-321" value="int" style="shape=partialRectangle;html=1;whiteSpace=wrap;connectable=0;strokeColor=inherit;overflow=hidden;fillColor=none;top=0;left=0;bottom=0;right=0;pointerEvents=1;" vertex="1" parent="Lo_Y75DreQVUA2kq9Nu9-320">
          <mxGeometry width="80" height="39" as="geometry">
            <mxRectangle width="80" height="39" as="alternateBounds" />
          </mxGeometry>
        </mxCell>
        <mxCell id="Lo_Y75DreQVUA2kq9Nu9-322" value="status_id" style="shape=partialRectangle;html=1;whiteSpace=wrap;connectable=0;strokeColor=inherit;overflow=hidden;fillColor=none;top=0;left=0;bottom=0;right=0;pointerEvents=1;" vertex="1" parent="Lo_Y75DreQVUA2kq9Nu9-320">
          <mxGeometry x="80" width="103" height="39" as="geometry">
            <mxRectangle width="103" height="39" as="alternateBounds" />
          </mxGeometry>
        </mxCell>
        <mxCell id="Lo_Y75DreQVUA2kq9Nu9-323" value="FK" style="shape=partialRectangle;html=1;whiteSpace=wrap;connectable=0;strokeColor=inherit;overflow=hidden;fillColor=none;top=0;left=0;bottom=0;right=0;pointerEvents=1;" vertex="1" parent="Lo_Y75DreQVUA2kq9Nu9-320">
          <mxGeometry x="183" width="57" height="39" as="geometry">
            <mxRectangle width="57" height="39" as="alternateBounds" />
          </mxGeometry>
        </mxCell>
        <mxCell id="Lo_Y75DreQVUA2kq9Nu9-324" value="" style="shape=tableRow;horizontal=0;startSize=0;swimlaneHead=0;swimlaneBody=0;strokeColor=inherit;top=0;left=0;bottom=0;right=0;collapsible=0;dropTarget=0;fillColor=none;points=[[0,0.5],[1,0.5]];portConstraint=eastwest;" vertex="1" parent="Lo_Y75DreQVUA2kq9Nu9-311">
          <mxGeometry y="150" width="240" height="40" as="geometry" />
        </mxCell>
        <mxCell id="Lo_Y75DreQVUA2kq9Nu9-325" value="timestamp" style="shape=partialRectangle;html=1;whiteSpace=wrap;connectable=0;strokeColor=inherit;overflow=hidden;fillColor=none;top=0;left=0;bottom=0;right=0;pointerEvents=1;" vertex="1" parent="Lo_Y75DreQVUA2kq9Nu9-324">
          <mxGeometry width="80" height="40" as="geometry">
            <mxRectangle width="80" height="40" as="alternateBounds" />
          </mxGeometry>
        </mxCell>
        <mxCell id="Lo_Y75DreQVUA2kq9Nu9-326" value="changed_at" style="shape=partialRectangle;html=1;whiteSpace=wrap;connectable=0;strokeColor=inherit;overflow=hidden;fillColor=none;top=0;left=0;bottom=0;right=0;pointerEvents=1;" vertex="1" parent="Lo_Y75DreQVUA2kq9Nu9-324">
          <mxGeometry x="80" width="103" height="40" as="geometry">
            <mxRectangle width="103" height="40" as="alternateBounds" />
          </mxGeometry>
        </mxCell>
        <mxCell id="Lo_Y75DreQVUA2kq9Nu9-327" value="" style="shape=partialRectangle;html=1;whiteSpace=wrap;connectable=0;strokeColor=inherit;overflow=hidden;fillColor=none;top=0;left=0;bottom=0;right=0;pointerEvents=1;" vertex="1" parent="Lo_Y75DreQVUA2kq9Nu9-324">
          <mxGeometry x="183" width="57" height="40" as="geometry">
            <mxRectangle width="57" height="40" as="alternateBounds" />
          </mxGeometry>
        </mxCell>
        <mxCell id="Lo_Y75DreQVUA2kq9Nu9-328" value="" style="shape=tableRow;horizontal=0;startSize=0;swimlaneHead=0;swimlaneBody=0;strokeColor=inherit;top=0;left=0;bottom=0;right=0;collapsible=0;dropTarget=0;fillColor=none;points=[[0,0.5],[1,0.5]];portConstraint=eastwest;" vertex="1" parent="Lo_Y75DreQVUA2kq9Nu9-311">
          <mxGeometry y="190" width="240" height="40" as="geometry" />
        </mxCell>
        <mxCell id="Lo_Y75DreQVUA2kq9Nu9-329" value="string" style="shape=partialRectangle;html=1;whiteSpace=wrap;connectable=0;strokeColor=inherit;overflow=hidden;fillColor=none;top=0;left=0;bottom=0;right=0;pointerEvents=1;" vertex="1" parent="Lo_Y75DreQVUA2kq9Nu9-328">
          <mxGeometry width="80" height="40" as="geometry">
            <mxRectangle width="80" height="40" as="alternateBounds" />
          </mxGeometry>
        </mxCell>
        <mxCell id="Lo_Y75DreQVUA2kq9Nu9-330" value="note" style="shape=partialRectangle;html=1;whiteSpace=wrap;connectable=0;strokeColor=inherit;overflow=hidden;fillColor=none;top=0;left=0;bottom=0;right=0;pointerEvents=1;" vertex="1" parent="Lo_Y75DreQVUA2kq9Nu9-328">
          <mxGeometry x="80" width="103" height="40" as="geometry">
            <mxRectangle width="103" height="40" as="alternateBounds" />
          </mxGeometry>
        </mxCell>
        <mxCell id="Lo_Y75DreQVUA2kq9Nu9-331" value="" style="shape=partialRectangle;html=1;whiteSpace=wrap;connectable=0;strokeColor=inherit;overflow=hidden;fillColor=none;top=0;left=0;bottom=0;right=0;pointerEvents=1;" vertex="1" parent="Lo_Y75DreQVUA2kq9Nu9-328">
          <mxGeometry x="183" width="57" height="40" as="geometry">
            <mxRectangle width="57" height="40" as="alternateBounds" />
          </mxGeometry>
        </mxCell>
        <mxCell id="Lo_Y75DreQVUA2kq9Nu9-360" style="edgeStyle=orthogonalEdgeStyle;curved=1;rounded=0;orthogonalLoop=1;jettySize=auto;html=1;entryX=0.5;entryY=0;entryDx=0;entryDy=0;" edge="1" parent="1" source="Lo_Y75DreQVUA2kq9Nu9-332" target="Lo_Y75DreQVUA2kq9Nu9-108">
          <mxGeometry relative="1" as="geometry" />
        </mxCell>
        <mxCell id="Lo_Y75DreQVUA2kq9Nu9-332" value="COUNTRY" style="shape=table;startSize=30;container=1;collapsible=0;childLayout=tableLayout;" vertex="1" parent="1">
          <mxGeometry x="-40" y="10" width="210" height="160" as="geometry" />
        </mxCell>
        <mxCell id="Lo_Y75DreQVUA2kq9Nu9-333" value="" style="shape=tableRow;horizontal=0;startSize=0;swimlaneHead=0;swimlaneBody=0;strokeColor=inherit;top=0;left=0;bottom=0;right=0;collapsible=0;dropTarget=0;fillColor=none;points=[[0,0.5],[1,0.5]];portConstraint=eastwest;" vertex="1" parent="Lo_Y75DreQVUA2kq9Nu9-332">
          <mxGeometry y="30" width="210" height="43" as="geometry" />
        </mxCell>
        <mxCell id="Lo_Y75DreQVUA2kq9Nu9-334" value="int" style="shape=partialRectangle;html=1;whiteSpace=wrap;connectable=0;strokeColor=inherit;overflow=hidden;fillColor=none;top=0;left=0;bottom=0;right=0;pointerEvents=1;" vertex="1" parent="Lo_Y75DreQVUA2kq9Nu9-333">
          <mxGeometry width="70" height="43" as="geometry">
            <mxRectangle width="70" height="43" as="alternateBounds" />
          </mxGeometry>
        </mxCell>
        <mxCell id="Lo_Y75DreQVUA2kq9Nu9-335" value="country_id" style="shape=partialRectangle;html=1;whiteSpace=wrap;connectable=0;strokeColor=inherit;overflow=hidden;fillColor=none;top=0;left=0;bottom=0;right=0;pointerEvents=1;" vertex="1" parent="Lo_Y75DreQVUA2kq9Nu9-333">
          <mxGeometry x="70" width="93" height="43" as="geometry">
            <mxRectangle width="93" height="43" as="alternateBounds" />
          </mxGeometry>
        </mxCell>
        <mxCell id="Lo_Y75DreQVUA2kq9Nu9-336" value="PK" style="shape=partialRectangle;html=1;whiteSpace=wrap;connectable=0;strokeColor=inherit;overflow=hidden;fillColor=none;top=0;left=0;bottom=0;right=0;pointerEvents=1;" vertex="1" parent="Lo_Y75DreQVUA2kq9Nu9-333">
          <mxGeometry x="163" width="47" height="43" as="geometry">
            <mxRectangle width="47" height="43" as="alternateBounds" />
          </mxGeometry>
        </mxCell>
        <mxCell id="Lo_Y75DreQVUA2kq9Nu9-337" value="" style="shape=tableRow;horizontal=0;startSize=0;swimlaneHead=0;swimlaneBody=0;strokeColor=inherit;top=0;left=0;bottom=0;right=0;collapsible=0;dropTarget=0;fillColor=none;points=[[0,0.5],[1,0.5]];portConstraint=eastwest;" vertex="1" parent="Lo_Y75DreQVUA2kq9Nu9-332">
          <mxGeometry y="73" width="210" height="44" as="geometry" />
        </mxCell>
        <mxCell id="Lo_Y75DreQVUA2kq9Nu9-338" value="string" style="shape=partialRectangle;html=1;whiteSpace=wrap;connectable=0;strokeColor=inherit;overflow=hidden;fillColor=none;top=0;left=0;bottom=0;right=0;pointerEvents=1;" vertex="1" parent="Lo_Y75DreQVUA2kq9Nu9-337">
          <mxGeometry width="70" height="44" as="geometry">
            <mxRectangle width="70" height="44" as="alternateBounds" />
          </mxGeometry>
        </mxCell>
        <mxCell id="Lo_Y75DreQVUA2kq9Nu9-339" value="country_name" style="shape=partialRectangle;html=1;whiteSpace=wrap;connectable=0;strokeColor=inherit;overflow=hidden;fillColor=none;top=0;left=0;bottom=0;right=0;pointerEvents=1;" vertex="1" parent="Lo_Y75DreQVUA2kq9Nu9-337">
          <mxGeometry x="70" width="93" height="44" as="geometry">
            <mxRectangle width="93" height="44" as="alternateBounds" />
          </mxGeometry>
        </mxCell>
        <mxCell id="Lo_Y75DreQVUA2kq9Nu9-340" value="" style="shape=partialRectangle;html=1;whiteSpace=wrap;connectable=0;strokeColor=inherit;overflow=hidden;fillColor=none;top=0;left=0;bottom=0;right=0;pointerEvents=1;" vertex="1" parent="Lo_Y75DreQVUA2kq9Nu9-337">
          <mxGeometry x="163" width="47" height="44" as="geometry">
            <mxRectangle width="47" height="44" as="alternateBounds" />
          </mxGeometry>
        </mxCell>
        <mxCell id="Lo_Y75DreQVUA2kq9Nu9-341" value="" style="shape=tableRow;horizontal=0;startSize=0;swimlaneHead=0;swimlaneBody=0;strokeColor=inherit;top=0;left=0;bottom=0;right=0;collapsible=0;dropTarget=0;fillColor=none;points=[[0,0.5],[1,0.5]];portConstraint=eastwest;" vertex="1" parent="Lo_Y75DreQVUA2kq9Nu9-332">
          <mxGeometry y="117" width="210" height="43" as="geometry" />
        </mxCell>
        <mxCell id="Lo_Y75DreQVUA2kq9Nu9-342" value="string" style="shape=partialRectangle;html=1;whiteSpace=wrap;connectable=0;strokeColor=inherit;overflow=hidden;fillColor=none;top=0;left=0;bottom=0;right=0;pointerEvents=1;" vertex="1" parent="Lo_Y75DreQVUA2kq9Nu9-341">
          <mxGeometry width="70" height="43" as="geometry">
            <mxRectangle width="70" height="43" as="alternateBounds" />
          </mxGeometry>
        </mxCell>
        <mxCell id="Lo_Y75DreQVUA2kq9Nu9-343" value="iso_code" style="shape=partialRectangle;html=1;whiteSpace=wrap;connectable=0;strokeColor=inherit;overflow=hidden;fillColor=none;top=0;left=0;bottom=0;right=0;pointerEvents=1;" vertex="1" parent="Lo_Y75DreQVUA2kq9Nu9-341">
          <mxGeometry x="70" width="93" height="43" as="geometry">
            <mxRectangle width="93" height="43" as="alternateBounds" />
          </mxGeometry>
        </mxCell>
        <mxCell id="Lo_Y75DreQVUA2kq9Nu9-344" value="" style="shape=partialRectangle;html=1;whiteSpace=wrap;connectable=0;strokeColor=inherit;overflow=hidden;fillColor=none;top=0;left=0;bottom=0;right=0;pointerEvents=1;" vertex="1" parent="Lo_Y75DreQVUA2kq9Nu9-341">
          <mxGeometry x="163" width="47" height="43" as="geometry">
            <mxRectangle width="47" height="43" as="alternateBounds" />
          </mxGeometry>
        </mxCell>
        <mxCell id="Lo_Y75DreQVUA2kq9Nu9-350" value="" style="endArrow=none;html=1;rounded=0;curved=1;entryX=0;entryY=0;entryDx=0;entryDy=0;" edge="1" parent="1" source="Lo_Y75DreQVUA2kq9Nu9-75" target="Lo_Y75DreQVUA2kq9Nu9-177">
          <mxGeometry width="50" height="50" relative="1" as="geometry">
            <mxPoint y="380" as="sourcePoint" />
            <mxPoint x="50" y="330" as="targetPoint" />
          </mxGeometry>
        </mxCell>
        <mxCell id="Lo_Y75DreQVUA2kq9Nu9-354" style="edgeStyle=orthogonalEdgeStyle;curved=1;rounded=0;orthogonalLoop=1;jettySize=auto;html=1;exitX=0.341;exitY=1.12;exitDx=0;exitDy=0;exitPerimeter=0;entryX=0.148;entryY=0.118;entryDx=0;entryDy=0;entryPerimeter=0;" edge="1" parent="1" source="Lo_Y75DreQVUA2kq9Nu9-206" target="Lo_Y75DreQVUA2kq9Nu9-281">
          <mxGeometry relative="1" as="geometry">
            <mxPoint x="-700" y="1050.0000000000002" as="sourcePoint" />
            <mxPoint x="-673.4199999999996" y="1339.63" as="targetPoint" />
          </mxGeometry>
        </mxCell>
        <mxCell id="Lo_Y75DreQVUA2kq9Nu9-355" style="edgeStyle=orthogonalEdgeStyle;curved=1;rounded=0;orthogonalLoop=1;jettySize=auto;html=1;entryX=-0.024;entryY=0.117;entryDx=0;entryDy=0;entryPerimeter=0;" edge="1" parent="1" source="Lo_Y75DreQVUA2kq9Nu9-202" target="Lo_Y75DreQVUA2kq9Nu9-295">
          <mxGeometry relative="1" as="geometry" />
        </mxCell>
        <mxCell id="Lo_Y75DreQVUA2kq9Nu9-358" value="" style="edgeStyle=orthogonalEdgeStyle;curved=1;rounded=0;orthogonalLoop=1;jettySize=auto;html=1;exitX=0;exitY=0.5;exitDx=0;exitDy=0;entryX=0;entryY=0.5;entryDx=0;entryDy=0;" edge="1" parent="1" source="Lo_Y75DreQVUA2kq9Nu9-104" target="Lo_Y75DreQVUA2kq9Nu9-232">
          <mxGeometry relative="1" as="geometry">
            <mxPoint x="-300" y="471" as="sourcePoint" />
            <mxPoint x="-40" y="808" as="targetPoint" />
            <Array as="points">
              <mxPoint x="-320" y="471" />
              <mxPoint x="-320" y="760" />
              <mxPoint x="-30" y="760" />
            </Array>
          </mxGeometry>
        </mxCell>
        <mxCell id="Lo_Y75DreQVUA2kq9Nu9-210" value="AUTHOR" style="shape=table;startSize=30;container=1;collapsible=0;childLayout=tableLayout;" vertex="1" parent="1">
          <mxGeometry x="-440" y="750" width="180" height="230" as="geometry" />
        </mxCell>
        <mxCell id="Lo_Y75DreQVUA2kq9Nu9-211" value="" style="shape=tableRow;horizontal=0;startSize=0;swimlaneHead=0;swimlaneBody=0;strokeColor=inherit;top=0;left=0;bottom=0;right=0;collapsible=0;dropTarget=0;fillColor=none;points=[[0,0.5],[1,0.5]];portConstraint=eastwest;" vertex="1" parent="Lo_Y75DreQVUA2kq9Nu9-210">
          <mxGeometry y="30" width="180" height="40" as="geometry" />
        </mxCell>
        <mxCell id="Lo_Y75DreQVUA2kq9Nu9-212" value="int" style="shape=partialRectangle;html=1;whiteSpace=wrap;connectable=0;strokeColor=inherit;overflow=hidden;fillColor=none;top=0;left=0;bottom=0;right=0;pointerEvents=1;" vertex="1" parent="Lo_Y75DreQVUA2kq9Nu9-211">
          <mxGeometry width="60" height="40" as="geometry">
            <mxRectangle width="60" height="40" as="alternateBounds" />
          </mxGeometry>
        </mxCell>
        <mxCell id="Lo_Y75DreQVUA2kq9Nu9-213" value="author_id" style="shape=partialRectangle;html=1;whiteSpace=wrap;connectable=0;strokeColor=inherit;overflow=hidden;fillColor=none;top=0;left=0;bottom=0;right=0;pointerEvents=1;" vertex="1" parent="Lo_Y75DreQVUA2kq9Nu9-211">
          <mxGeometry x="60" width="75" height="40" as="geometry">
            <mxRectangle width="75" height="40" as="alternateBounds" />
          </mxGeometry>
        </mxCell>
        <mxCell id="Lo_Y75DreQVUA2kq9Nu9-214" value="PK" style="shape=partialRectangle;html=1;whiteSpace=wrap;connectable=0;strokeColor=inherit;overflow=hidden;fillColor=none;top=0;left=0;bottom=0;right=0;pointerEvents=1;" vertex="1" parent="Lo_Y75DreQVUA2kq9Nu9-211">
          <mxGeometry x="135" width="45" height="40" as="geometry">
            <mxRectangle width="45" height="40" as="alternateBounds" />
          </mxGeometry>
        </mxCell>
        <mxCell id="Lo_Y75DreQVUA2kq9Nu9-215" value="" style="shape=tableRow;horizontal=0;startSize=0;swimlaneHead=0;swimlaneBody=0;strokeColor=inherit;top=0;left=0;bottom=0;right=0;collapsible=0;dropTarget=0;fillColor=none;points=[[0,0.5],[1,0.5]];portConstraint=eastwest;" vertex="1" parent="Lo_Y75DreQVUA2kq9Nu9-210">
          <mxGeometry y="70" width="180" height="40" as="geometry" />
        </mxCell>
        <mxCell id="Lo_Y75DreQVUA2kq9Nu9-216" value="string" style="shape=partialRectangle;html=1;whiteSpace=wrap;connectable=0;strokeColor=inherit;overflow=hidden;fillColor=none;top=0;left=0;bottom=0;right=0;pointerEvents=1;" vertex="1" parent="Lo_Y75DreQVUA2kq9Nu9-215">
          <mxGeometry width="60" height="40" as="geometry">
            <mxRectangle width="60" height="40" as="alternateBounds" />
          </mxGeometry>
        </mxCell>
        <mxCell id="Lo_Y75DreQVUA2kq9Nu9-217" value="first_name" style="shape=partialRectangle;html=1;whiteSpace=wrap;connectable=0;strokeColor=inherit;overflow=hidden;fillColor=none;top=0;left=0;bottom=0;right=0;pointerEvents=1;" vertex="1" parent="Lo_Y75DreQVUA2kq9Nu9-215">
          <mxGeometry x="60" width="75" height="40" as="geometry">
            <mxRectangle width="75" height="40" as="alternateBounds" />
          </mxGeometry>
        </mxCell>
        <mxCell id="Lo_Y75DreQVUA2kq9Nu9-218" value="" style="shape=partialRectangle;html=1;whiteSpace=wrap;connectable=0;strokeColor=inherit;overflow=hidden;fillColor=none;top=0;left=0;bottom=0;right=0;pointerEvents=1;" vertex="1" parent="Lo_Y75DreQVUA2kq9Nu9-215">
          <mxGeometry x="135" width="45" height="40" as="geometry">
            <mxRectangle width="45" height="40" as="alternateBounds" />
          </mxGeometry>
        </mxCell>
        <mxCell id="Lo_Y75DreQVUA2kq9Nu9-219" value="" style="shape=tableRow;horizontal=0;startSize=0;swimlaneHead=0;swimlaneBody=0;strokeColor=inherit;top=0;left=0;bottom=0;right=0;collapsible=0;dropTarget=0;fillColor=none;points=[[0,0.5],[1,0.5]];portConstraint=eastwest;" vertex="1" parent="Lo_Y75DreQVUA2kq9Nu9-210">
          <mxGeometry y="110" width="180" height="40" as="geometry" />
        </mxCell>
        <mxCell id="Lo_Y75DreQVUA2kq9Nu9-220" value="string" style="shape=partialRectangle;html=1;whiteSpace=wrap;connectable=0;strokeColor=inherit;overflow=hidden;fillColor=none;top=0;left=0;bottom=0;right=0;pointerEvents=1;" vertex="1" parent="Lo_Y75DreQVUA2kq9Nu9-219">
          <mxGeometry width="60" height="40" as="geometry">
            <mxRectangle width="60" height="40" as="alternateBounds" />
          </mxGeometry>
        </mxCell>
        <mxCell id="Lo_Y75DreQVUA2kq9Nu9-221" value="last_name" style="shape=partialRectangle;html=1;whiteSpace=wrap;connectable=0;strokeColor=inherit;overflow=hidden;fillColor=none;top=0;left=0;bottom=0;right=0;pointerEvents=1;" vertex="1" parent="Lo_Y75DreQVUA2kq9Nu9-219">
          <mxGeometry x="60" width="75" height="40" as="geometry">
            <mxRectangle width="75" height="40" as="alternateBounds" />
          </mxGeometry>
        </mxCell>
        <mxCell id="Lo_Y75DreQVUA2kq9Nu9-222" value="" style="shape=partialRectangle;html=1;whiteSpace=wrap;connectable=0;strokeColor=inherit;overflow=hidden;fillColor=none;top=0;left=0;bottom=0;right=0;pointerEvents=1;" vertex="1" parent="Lo_Y75DreQVUA2kq9Nu9-219">
          <mxGeometry x="135" width="45" height="40" as="geometry">
            <mxRectangle width="45" height="40" as="alternateBounds" />
          </mxGeometry>
        </mxCell>
        <mxCell id="Lo_Y75DreQVUA2kq9Nu9-223" value="" style="shape=tableRow;horizontal=0;startSize=0;swimlaneHead=0;swimlaneBody=0;strokeColor=inherit;top=0;left=0;bottom=0;right=0;collapsible=0;dropTarget=0;fillColor=none;points=[[0,0.5],[1,0.5]];portConstraint=eastwest;" vertex="1" parent="Lo_Y75DreQVUA2kq9Nu9-210">
          <mxGeometry y="150" width="180" height="40" as="geometry" />
        </mxCell>
        <mxCell id="Lo_Y75DreQVUA2kq9Nu9-224" value="string" style="shape=partialRectangle;html=1;whiteSpace=wrap;connectable=0;strokeColor=inherit;overflow=hidden;fillColor=none;top=0;left=0;bottom=0;right=0;pointerEvents=1;" vertex="1" parent="Lo_Y75DreQVUA2kq9Nu9-223">
          <mxGeometry width="60" height="40" as="geometry">
            <mxRectangle width="60" height="40" as="alternateBounds" />
          </mxGeometry>
        </mxCell>
        <mxCell id="Lo_Y75DreQVUA2kq9Nu9-225" value="bio" style="shape=partialRectangle;html=1;whiteSpace=wrap;connectable=0;strokeColor=inherit;overflow=hidden;fillColor=none;top=0;left=0;bottom=0;right=0;pointerEvents=1;" vertex="1" parent="Lo_Y75DreQVUA2kq9Nu9-223">
          <mxGeometry x="60" width="75" height="40" as="geometry">
            <mxRectangle width="75" height="40" as="alternateBounds" />
          </mxGeometry>
        </mxCell>
        <mxCell id="Lo_Y75DreQVUA2kq9Nu9-226" value="" style="shape=partialRectangle;html=1;whiteSpace=wrap;connectable=0;strokeColor=inherit;overflow=hidden;fillColor=none;top=0;left=0;bottom=0;right=0;pointerEvents=1;" vertex="1" parent="Lo_Y75DreQVUA2kq9Nu9-223">
          <mxGeometry x="135" width="45" height="40" as="geometry">
            <mxRectangle width="45" height="40" as="alternateBounds" />
          </mxGeometry>
        </mxCell>
        <mxCell id="Lo_Y75DreQVUA2kq9Nu9-227" value="" style="shape=tableRow;horizontal=0;startSize=0;swimlaneHead=0;swimlaneBody=0;strokeColor=inherit;top=0;left=0;bottom=0;right=0;collapsible=0;dropTarget=0;fillColor=none;points=[[0,0.5],[1,0.5]];portConstraint=eastwest;" vertex="1" parent="Lo_Y75DreQVUA2kq9Nu9-210">
          <mxGeometry y="190" width="180" height="40" as="geometry" />
        </mxCell>
        <mxCell id="Lo_Y75DreQVUA2kq9Nu9-228" value="date&amp;nbsp;" style="shape=partialRectangle;html=1;whiteSpace=wrap;connectable=0;strokeColor=inherit;overflow=hidden;fillColor=none;top=0;left=0;bottom=0;right=0;pointerEvents=1;" vertex="1" parent="Lo_Y75DreQVUA2kq9Nu9-227">
          <mxGeometry width="60" height="40" as="geometry">
            <mxRectangle width="60" height="40" as="alternateBounds" />
          </mxGeometry>
        </mxCell>
        <mxCell id="Lo_Y75DreQVUA2kq9Nu9-229" value="birth_date&amp;nbsp;" style="shape=partialRectangle;html=1;whiteSpace=wrap;connectable=0;strokeColor=inherit;overflow=hidden;fillColor=none;top=0;left=0;bottom=0;right=0;pointerEvents=1;" vertex="1" parent="Lo_Y75DreQVUA2kq9Nu9-227">
          <mxGeometry x="60" width="75" height="40" as="geometry">
            <mxRectangle width="75" height="40" as="alternateBounds" />
          </mxGeometry>
        </mxCell>
        <mxCell id="Lo_Y75DreQVUA2kq9Nu9-230" value="" style="shape=partialRectangle;html=1;whiteSpace=wrap;connectable=0;strokeColor=inherit;overflow=hidden;fillColor=none;top=0;left=0;bottom=0;right=0;pointerEvents=1;" vertex="1" parent="Lo_Y75DreQVUA2kq9Nu9-227">
          <mxGeometry x="135" width="45" height="40" as="geometry">
            <mxRectangle width="45" height="40" as="alternateBounds" />
          </mxGeometry>
        </mxCell>
        <mxCell id="Lo_Y75DreQVUA2kq9Nu9-359" style="edgeStyle=orthogonalEdgeStyle;curved=1;rounded=0;orthogonalLoop=1;jettySize=auto;html=1;exitX=1;exitY=0.5;exitDx=0;exitDy=0;entryX=0;entryY=0.5;entryDx=0;entryDy=0;" edge="1" parent="1" source="Lo_Y75DreQVUA2kq9Nu9-104" target="Lo_Y75DreQVUA2kq9Nu9-261">
          <mxGeometry relative="1" as="geometry">
            <Array as="points">
              <mxPoint x="-90" y="530" />
              <mxPoint x="130" y="530" />
              <mxPoint x="130" y="783" />
            </Array>
          </mxGeometry>
        </mxCell>
        <mxCell id="Lo_Y75DreQVUA2kq9Nu9-363" style="edgeStyle=orthogonalEdgeStyle;curved=1;rounded=0;orthogonalLoop=1;jettySize=auto;html=1;entryX=0.551;entryY=0.017;entryDx=0;entryDy=0;entryPerimeter=0;" edge="1" parent="1" source="Lo_Y75DreQVUA2kq9Nu9-142" target="Lo_Y75DreQVUA2kq9Nu9-256">
          <mxGeometry relative="1" as="geometry" />
        </mxCell>
        <mxCell id="Lo_Y75DreQVUA2kq9Nu9-364" style="edgeStyle=orthogonalEdgeStyle;curved=1;rounded=0;orthogonalLoop=1;jettySize=auto;html=1;entryX=0.986;entryY=0.04;entryDx=0;entryDy=0;entryPerimeter=0;" edge="1" parent="1" source="Lo_Y75DreQVUA2kq9Nu9-168" target="Lo_Y75DreQVUA2kq9Nu9-256">
          <mxGeometry relative="1" as="geometry">
            <Array as="points">
              <mxPoint x="1005" y="400" />
              <mxPoint x="760" y="400" />
              <mxPoint x="760" y="670" />
              <mxPoint x="577" y="670" />
            </Array>
          </mxGeometry>
        </mxCell>
        <mxCell id="Lo_Y75DreQVUA2kq9Nu9-365" style="edgeStyle=orthogonalEdgeStyle;curved=1;rounded=0;orthogonalLoop=1;jettySize=auto;html=1;entryX=0.576;entryY=0.057;entryDx=0;entryDy=0;entryPerimeter=0;" edge="1" parent="1" source="Lo_Y75DreQVUA2kq9Nu9-168" target="Lo_Y75DreQVUA2kq9Nu9-311">
          <mxGeometry relative="1" as="geometry" />
        </mxCell>
        <mxCell id="Lo_Y75DreQVUA2kq9Nu9-366" style="edgeStyle=orthogonalEdgeStyle;curved=1;rounded=0;orthogonalLoop=1;jettySize=auto;html=1;entryX=0.021;entryY=-0.258;entryDx=0;entryDy=0;entryPerimeter=0;" edge="1" parent="1" source="Lo_Y75DreQVUA2kq9Nu9-277" target="Lo_Y75DreQVUA2kq9Nu9-312">
          <mxGeometry relative="1" as="geometry" />
        </mxCell>
        <mxCell id="Lo_Y75DreQVUA2kq9Nu9-367" style="edgeStyle=orthogonalEdgeStyle;curved=1;rounded=0;orthogonalLoop=1;jettySize=auto;html=1;entryX=1;entryY=0.5;entryDx=0;entryDy=0;" edge="1" parent="1" source="Lo_Y75DreQVUA2kq9Nu9-269" target="Lo_Y75DreQVUA2kq9Nu9-291">
          <mxGeometry relative="1" as="geometry" />
        </mxCell>
      </root>
    </mxGraphModel>
  </diagram>
</mxfile>
